  0
SECTION
  2
BLOCKS
  0
ENDSEC
  0
SECTION
  2
ENTITIES
  0
LINE
  8
0
 10
115.4
 20
-111.1
 11
144.4
 21
-111.1
  0
LINE
  8
0
 10
144.4
 20
-111.1
 11
144.4
 21
-122.7
  0
LINE
  8
0
 10
144.4
 20
-122.7
 11
162.5
 21
-122.7
  0
LINE
  8
0
 10
162.5
 20
-122.7
 11
162.5
 21
-57.5
  0
LINE
  8
0
 10
162.5
 20
-57.5
 11
97.3
 21
-57.5
  0
LINE
  8
0
 10
97.3
 20
-57.5
 11
97.3
 21
-122.7
  0
LINE
  8
0
 10
97.3
 20
-122.7
 11
115.4
 21
-122.7
  0
LINE
  8
0
 10
115.4
 20
-122.7
 11
115.4
 21
-111.1
  0
LINE
  8
0
 10
103.793
 20
-65.7966
 11
103.687
 21
-65.7866
  0
LINE
  8
0
 10
103.687
 20
-65.7866
 11
103.581
 21
-65.7699
  0
LINE
  8
0
 10
103.581
 20
-65.7699
 11
103.477
 21
-65.7466
  0
LINE
  8
0
 10
103.477
 20
-65.7466
 11
103.375
 21
-65.7168
  0
LINE
  8
0
 10
103.375
 20
-65.7168
 11
103.274
 21
-65.6806
  0
LINE
  8
0
 10
103.274
 20
-65.6806
 11
103.176
 21
-65.6382
  0
LINE
  8
0
 10
103.176
 20
-65.6382
 11
103.081
 21
-65.5897
  0
LINE
  8
0
 10
103.081
 20
-65.5897
 11
102.989
 21
-65.5354
  0
LINE
  8
0
 10
102.989
 20
-65.5354
 11
102.901
 21
-65.4753
  0
LINE
  8
0
 10
102.901
 20
-65.4753
 11
102.816
 21
-65.4099
  0
LINE
  8
0
 10
102.816
 20
-65.4099
 11
102.736
 21
-65.3392
  0
LINE
  8
0
 10
102.736
 20
-65.3392
 11
102.661
 21
-65.2637
  0
LINE
  8
0
 10
102.661
 20
-65.2637
 11
102.59
 21
-65.1836
  0
LINE
  8
0
 10
102.59
 20
-65.1836
 11
102.525
 21
-65.0992
  0
LINE
  8
0
 10
102.525
 20
-65.0992
 11
102.465
 21
-65.0109
  0
LINE
  8
0
 10
102.465
 20
-65.0109
 11
102.41
 21
-64.919
  0
LINE
  8
0
 10
102.41
 20
-64.919
 11
102.362
 21
-64.8238
  0
LINE
  8
0
 10
102.362
 20
-64.8238
 11
102.319
 21
-64.7258
  0
LINE
  8
0
 10
102.319
 20
-64.7258
 11
102.283
 21
-64.6253
  0
LINE
  8
0
 10
102.283
 20
-64.6253
 11
102.253
 21
-64.5228
  0
LINE
  8
0
 10
102.253
 20
-64.5228
 11
102.23
 21
-64.4185
  0
LINE
  8
0
 10
102.23
 20
-64.4185
 11
102.213
 21
-64.3131
  0
LINE
  8
0
 10
102.213
 20
-64.3131
 11
102.203
 21
-64.2067
  0
LINE
  8
0
 10
102.203
 20
-64.2067
 11
102.2
 21
-64.1
  0
LINE
  8
0
 10
102.2
 20
-64.1
 11
102.203
 21
-63.9933
  0
LINE
  8
0
 10
102.203
 20
-63.9933
 11
102.213
 21
-63.8869
  0
LINE
  8
0
 10
102.213
 20
-63.8869
 11
102.23
 21
-63.7814
  0
LINE
  8
0
 10
102.23
 20
-63.7814
 11
102.253
 21
-63.6772
  0
LINE
  8
0
 10
102.253
 20
-63.6772
 11
102.283
 21
-63.5747
  0
LINE
  8
0
 10
102.283
 20
-63.5747
 11
102.319
 21
-63.4742
  0
LINE
  8
0
 10
102.319
 20
-63.4742
 11
102.362
 21
-63.3762
  0
LINE
  8
0
 10
102.362
 20
-63.3762
 11
102.41
 21
-63.281
  0
LINE
  8
0
 10
102.41
 20
-63.281
 11
102.465
 21
-63.1891
  0
LINE
  8
0
 10
102.465
 20
-63.1891
 11
102.525
 21
-63.1008
  0
LINE
  8
0
 10
102.525
 20
-63.1008
 11
102.59
 21
-63.0164
  0
LINE
  8
0
 10
102.59
 20
-63.0164
 11
102.661
 21
-62.9363
  0
LINE
  8
0
 10
102.661
 20
-62.9363
 11
102.736
 21
-62.8607
  0
LINE
  8
0
 10
102.736
 20
-62.8607
 11
102.816
 21
-62.7901
  0
LINE
  8
0
 10
102.816
 20
-62.7901
 11
102.901
 21
-62.7247
  0
LINE
  8
0
 10
102.901
 20
-62.7247
 11
102.989
 21
-62.6646
  0
LINE
  8
0
 10
102.989
 20
-62.6646
 11
103.081
 21
-62.6103
  0
LINE
  8
0
 10
103.081
 20
-62.6103
 11
103.176
 21
-62.5618
  0
LINE
  8
0
 10
103.176
 20
-62.5618
 11
103.274
 21
-62.5194
  0
LINE
  8
0
 10
103.274
 20
-62.5194
 11
103.375
 21
-62.4832
  0
LINE
  8
0
 10
103.375
 20
-62.4832
 11
103.477
 21
-62.4534
  0
LINE
  8
0
 10
103.477
 20
-62.4534
 11
103.581
 21
-62.4301
  0
LINE
  8
0
 10
103.581
 20
-62.4301
 11
103.687
 21
-62.4134
  0
LINE
  8
0
 10
103.687
 20
-62.4134
 11
103.793
 21
-62.4034
  0
LINE
  8
0
 10
103.793
 20
-62.4034
 11
103.9
 21
-62.4
  0
LINE
  8
0
 10
103.9
 20
-62.4
 11
104.007
 21
-62.4034
  0
LINE
  8
0
 10
104.007
 20
-62.4034
 11
104.113
 21
-62.4134
  0
LINE
  8
0
 10
104.113
 20
-62.4134
 11
104.219
 21
-62.4301
  0
LINE
  8
0
 10
104.219
 20
-62.4301
 11
104.323
 21
-62.4534
  0
LINE
  8
0
 10
104.323
 20
-62.4534
 11
104.425
 21
-62.4832
  0
LINE
  8
0
 10
104.425
 20
-62.4832
 11
104.526
 21
-62.5194
  0
LINE
  8
0
 10
104.526
 20
-62.5194
 11
104.624
 21
-62.5618
  0
LINE
  8
0
 10
104.624
 20
-62.5618
 11
104.719
 21
-62.6103
  0
LINE
  8
0
 10
104.719
 20
-62.6103
 11
104.811
 21
-62.6646
  0
LINE
  8
0
 10
104.811
 20
-62.6646
 11
104.899
 21
-62.7247
  0
LINE
  8
0
 10
104.899
 20
-62.7247
 11
104.984
 21
-62.7901
  0
LINE
  8
0
 10
104.984
 20
-62.7901
 11
105.064
 21
-62.8607
  0
LINE
  8
0
 10
105.064
 20
-62.8607
 11
105.139
 21
-62.9363
  0
LINE
  8
0
 10
105.139
 20
-62.9363
 11
105.21
 21
-63.0164
  0
LINE
  8
0
 10
105.21
 20
-63.0164
 11
105.275
 21
-63.1008
  0
LINE
  8
0
 10
105.275
 20
-63.1008
 11
105.335
 21
-63.1891
  0
LINE
  8
0
 10
105.335
 20
-63.1891
 11
105.39
 21
-63.281
  0
LINE
  8
0
 10
105.39
 20
-63.281
 11
105.438
 21
-63.3762
  0
LINE
  8
0
 10
105.438
 20
-63.3762
 11
105.481
 21
-63.4742
  0
LINE
  8
0
 10
105.481
 20
-63.4742
 11
105.517
 21
-63.5747
  0
LINE
  8
0
 10
105.517
 20
-63.5747
 11
105.547
 21
-63.6772
  0
LINE
  8
0
 10
105.547
 20
-63.6772
 11
105.57
 21
-63.7814
  0
LINE
  8
0
 10
105.57
 20
-63.7814
 11
105.587
 21
-63.8869
  0
LINE
  8
0
 10
105.587
 20
-63.8869
 11
105.597
 21
-63.9933
  0
LINE
  8
0
 10
105.597
 20
-63.9933
 11
105.6
 21
-64.1
  0
LINE
  8
0
 10
105.6
 20
-64.1
 11
105.597
 21
-64.2067
  0
LINE
  8
0
 10
105.597
 20
-64.2067
 11
105.587
 21
-64.3131
  0
LINE
  8
0
 10
105.587
 20
-64.3131
 11
105.57
 21
-64.4185
  0
LINE
  8
0
 10
105.57
 20
-64.4185
 11
105.547
 21
-64.5228
  0
LINE
  8
0
 10
105.547
 20
-64.5228
 11
105.517
 21
-64.6253
  0
LINE
  8
0
 10
105.517
 20
-64.6253
 11
105.481
 21
-64.7258
  0
LINE
  8
0
 10
105.481
 20
-64.7258
 11
105.438
 21
-64.8238
  0
LINE
  8
0
 10
105.438
 20
-64.8238
 11
105.39
 21
-64.919
  0
LINE
  8
0
 10
105.39
 20
-64.919
 11
105.335
 21
-65.0109
  0
LINE
  8
0
 10
105.335
 20
-65.0109
 11
105.275
 21
-65.0992
  0
LINE
  8
0
 10
105.275
 20
-65.0992
 11
105.21
 21
-65.1836
  0
LINE
  8
0
 10
105.21
 20
-65.1836
 11
105.139
 21
-65.2637
  0
LINE
  8
0
 10
105.139
 20
-65.2637
 11
105.064
 21
-65.3392
  0
LINE
  8
0
 10
105.064
 20
-65.3392
 11
104.984
 21
-65.4099
  0
LINE
  8
0
 10
104.984
 20
-65.4099
 11
104.899
 21
-65.4753
  0
LINE
  8
0
 10
104.899
 20
-65.4753
 11
104.811
 21
-65.5354
  0
LINE
  8
0
 10
104.811
 20
-65.5354
 11
104.719
 21
-65.5897
  0
LINE
  8
0
 10
104.719
 20
-65.5897
 11
104.624
 21
-65.6382
  0
LINE
  8
0
 10
104.624
 20
-65.6382
 11
104.526
 21
-65.6806
  0
LINE
  8
0
 10
104.526
 20
-65.6806
 11
104.425
 21
-65.7168
  0
LINE
  8
0
 10
104.425
 20
-65.7168
 11
104.323
 21
-65.7466
  0
LINE
  8
0
 10
104.323
 20
-65.7466
 11
104.219
 21
-65.7699
  0
LINE
  8
0
 10
104.219
 20
-65.7699
 11
104.113
 21
-65.7866
  0
LINE
  8
0
 10
104.113
 20
-65.7866
 11
104.007
 21
-65.7966
  0
LINE
  8
0
 10
104.007
 20
-65.7966
 11
103.9
 21
-65.8
  0
LINE
  8
0
 10
103.9
 20
-65.8
 11
103.793
 21
-65.7966
  0
LINE
  8
0
 10
155.793
 20
-65.7966
 11
155.687
 21
-65.7866
  0
LINE
  8
0
 10
155.687
 20
-65.7866
 11
155.581
 21
-65.7699
  0
LINE
  8
0
 10
155.581
 20
-65.7699
 11
155.477
 21
-65.7466
  0
LINE
  8
0
 10
155.477
 20
-65.7466
 11
155.375
 21
-65.7168
  0
LINE
  8
0
 10
155.375
 20
-65.7168
 11
155.274
 21
-65.6806
  0
LINE
  8
0
 10
155.274
 20
-65.6806
 11
155.176
 21
-65.6382
  0
LINE
  8
0
 10
155.176
 20
-65.6382
 11
155.081
 21
-65.5897
  0
LINE
  8
0
 10
155.081
 20
-65.5897
 11
154.989
 21
-65.5354
  0
LINE
  8
0
 10
154.989
 20
-65.5354
 11
154.901
 21
-65.4753
  0
LINE
  8
0
 10
154.901
 20
-65.4753
 11
154.816
 21
-65.4099
  0
LINE
  8
0
 10
154.816
 20
-65.4099
 11
154.736
 21
-65.3392
  0
LINE
  8
0
 10
154.736
 20
-65.3392
 11
154.661
 21
-65.2637
  0
LINE
  8
0
 10
154.661
 20
-65.2637
 11
154.59
 21
-65.1836
  0
LINE
  8
0
 10
154.59
 20
-65.1836
 11
154.525
 21
-65.0992
  0
LINE
  8
0
 10
154.525
 20
-65.0992
 11
154.465
 21
-65.0109
  0
LINE
  8
0
 10
154.465
 20
-65.0109
 11
154.41
 21
-64.919
  0
LINE
  8
0
 10
154.41
 20
-64.919
 11
154.362
 21
-64.8238
  0
LINE
  8
0
 10
154.362
 20
-64.8238
 11
154.319
 21
-64.7258
  0
LINE
  8
0
 10
154.319
 20
-64.7258
 11
154.283
 21
-64.6253
  0
LINE
  8
0
 10
154.283
 20
-64.6253
 11
154.253
 21
-64.5228
  0
LINE
  8
0
 10
154.253
 20
-64.5228
 11
154.23
 21
-64.4185
  0
LINE
  8
0
 10
154.23
 20
-64.4185
 11
154.213
 21
-64.3131
  0
LINE
  8
0
 10
154.213
 20
-64.3131
 11
154.203
 21
-64.2067
  0
LINE
  8
0
 10
154.203
 20
-64.2067
 11
154.2
 21
-64.1
  0
LINE
  8
0
 10
154.2
 20
-64.1
 11
154.203
 21
-63.9933
  0
LINE
  8
0
 10
154.203
 20
-63.9933
 11
154.213
 21
-63.8869
  0
LINE
  8
0
 10
154.213
 20
-63.8869
 11
154.23
 21
-63.7814
  0
LINE
  8
0
 10
154.23
 20
-63.7814
 11
154.253
 21
-63.6772
  0
LINE
  8
0
 10
154.253
 20
-63.6772
 11
154.283
 21
-63.5747
  0
LINE
  8
0
 10
154.283
 20
-63.5747
 11
154.319
 21
-63.4742
  0
LINE
  8
0
 10
154.319
 20
-63.4742
 11
154.362
 21
-63.3762
  0
LINE
  8
0
 10
154.362
 20
-63.3762
 11
154.41
 21
-63.281
  0
LINE
  8
0
 10
154.41
 20
-63.281
 11
154.465
 21
-63.1891
  0
LINE
  8
0
 10
154.465
 20
-63.1891
 11
154.525
 21
-63.1008
  0
LINE
  8
0
 10
154.525
 20
-63.1008
 11
154.59
 21
-63.0164
  0
LINE
  8
0
 10
154.59
 20
-63.0164
 11
154.661
 21
-62.9363
  0
LINE
  8
0
 10
154.661
 20
-62.9363
 11
154.736
 21
-62.8607
  0
LINE
  8
0
 10
154.736
 20
-62.8607
 11
154.816
 21
-62.7901
  0
LINE
  8
0
 10
154.816
 20
-62.7901
 11
154.901
 21
-62.7247
  0
LINE
  8
0
 10
154.901
 20
-62.7247
 11
154.989
 21
-62.6646
  0
LINE
  8
0
 10
154.989
 20
-62.6646
 11
155.081
 21
-62.6103
  0
LINE
  8
0
 10
155.081
 20
-62.6103
 11
155.176
 21
-62.5618
  0
LINE
  8
0
 10
155.176
 20
-62.5618
 11
155.274
 21
-62.5194
  0
LINE
  8
0
 10
155.274
 20
-62.5194
 11
155.375
 21
-62.4832
  0
LINE
  8
0
 10
155.375
 20
-62.4832
 11
155.477
 21
-62.4534
  0
LINE
  8
0
 10
155.477
 20
-62.4534
 11
155.581
 21
-62.4301
  0
LINE
  8
0
 10
155.581
 20
-62.4301
 11
155.687
 21
-62.4134
  0
LINE
  8
0
 10
155.687
 20
-62.4134
 11
155.793
 21
-62.4034
  0
LINE
  8
0
 10
155.793
 20
-62.4034
 11
155.9
 21
-62.4
  0
LINE
  8
0
 10
155.9
 20
-62.4
 11
156.007
 21
-62.4034
  0
LINE
  8
0
 10
156.007
 20
-62.4034
 11
156.113
 21
-62.4134
  0
LINE
  8
0
 10
156.113
 20
-62.4134
 11
156.219
 21
-62.4301
  0
LINE
  8
0
 10
156.219
 20
-62.4301
 11
156.323
 21
-62.4534
  0
LINE
  8
0
 10
156.323
 20
-62.4534
 11
156.425
 21
-62.4832
  0
LINE
  8
0
 10
156.425
 20
-62.4832
 11
156.526
 21
-62.5194
  0
LINE
  8
0
 10
156.526
 20
-62.5194
 11
156.624
 21
-62.5618
  0
LINE
  8
0
 10
156.624
 20
-62.5618
 11
156.719
 21
-62.6103
  0
LINE
  8
0
 10
156.719
 20
-62.6103
 11
156.811
 21
-62.6646
  0
LINE
  8
0
 10
156.811
 20
-62.6646
 11
156.899
 21
-62.7247
  0
LINE
  8
0
 10
156.899
 20
-62.7247
 11
156.984
 21
-62.7901
  0
LINE
  8
0
 10
156.984
 20
-62.7901
 11
157.064
 21
-62.8607
  0
LINE
  8
0
 10
157.064
 20
-62.8607
 11
157.139
 21
-62.9363
  0
LINE
  8
0
 10
157.139
 20
-62.9363
 11
157.21
 21
-63.0164
  0
LINE
  8
0
 10
157.21
 20
-63.0164
 11
157.275
 21
-63.1008
  0
LINE
  8
0
 10
157.275
 20
-63.1008
 11
157.335
 21
-63.1891
  0
LINE
  8
0
 10
157.335
 20
-63.1891
 11
157.39
 21
-63.281
  0
LINE
  8
0
 10
157.39
 20
-63.281
 11
157.438
 21
-63.3762
  0
LINE
  8
0
 10
157.438
 20
-63.3762
 11
157.481
 21
-63.4742
  0
LINE
  8
0
 10
157.481
 20
-63.4742
 11
157.517
 21
-63.5747
  0
LINE
  8
0
 10
157.517
 20
-63.5747
 11
157.547
 21
-63.6772
  0
LINE
  8
0
 10
157.547
 20
-63.6772
 11
157.57
 21
-63.7814
  0
LINE
  8
0
 10
157.57
 20
-63.7814
 11
157.587
 21
-63.8869
  0
LINE
  8
0
 10
157.587
 20
-63.8869
 11
157.597
 21
-63.9933
  0
LINE
  8
0
 10
157.597
 20
-63.9933
 11
157.6
 21
-64.1
  0
LINE
  8
0
 10
157.6
 20
-64.1
 11
157.597
 21
-64.2067
  0
LINE
  8
0
 10
157.597
 20
-64.2067
 11
157.587
 21
-64.3131
  0
LINE
  8
0
 10
157.587
 20
-64.3131
 11
157.57
 21
-64.4185
  0
LINE
  8
0
 10
157.57
 20
-64.4185
 11
157.547
 21
-64.5228
  0
LINE
  8
0
 10
157.547
 20
-64.5228
 11
157.517
 21
-64.6253
  0
LINE
  8
0
 10
157.517
 20
-64.6253
 11
157.481
 21
-64.7258
  0
LINE
  8
0
 10
157.481
 20
-64.7258
 11
157.438
 21
-64.8238
  0
LINE
  8
0
 10
157.438
 20
-64.8238
 11
157.39
 21
-64.919
  0
LINE
  8
0
 10
157.39
 20
-64.919
 11
157.335
 21
-65.0109
  0
LINE
  8
0
 10
157.335
 20
-65.0109
 11
157.275
 21
-65.0992
  0
LINE
  8
0
 10
157.275
 20
-65.0992
 11
157.21
 21
-65.1836
  0
LINE
  8
0
 10
157.21
 20
-65.1836
 11
157.139
 21
-65.2637
  0
LINE
  8
0
 10
157.139
 20
-65.2637
 11
157.064
 21
-65.3392
  0
LINE
  8
0
 10
157.064
 20
-65.3392
 11
156.984
 21
-65.4099
  0
LINE
  8
0
 10
156.984
 20
-65.4099
 11
156.899
 21
-65.4753
  0
LINE
  8
0
 10
156.899
 20
-65.4753
 11
156.811
 21
-65.5354
  0
LINE
  8
0
 10
156.811
 20
-65.5354
 11
156.719
 21
-65.5897
  0
LINE
  8
0
 10
156.719
 20
-65.5897
 11
156.624
 21
-65.6382
  0
LINE
  8
0
 10
156.624
 20
-65.6382
 11
156.526
 21
-65.6806
  0
LINE
  8
0
 10
156.526
 20
-65.6806
 11
156.425
 21
-65.7168
  0
LINE
  8
0
 10
156.425
 20
-65.7168
 11
156.323
 21
-65.7466
  0
LINE
  8
0
 10
156.323
 20
-65.7466
 11
156.219
 21
-65.7699
  0
LINE
  8
0
 10
156.219
 20
-65.7699
 11
156.113
 21
-65.7866
  0
LINE
  8
0
 10
156.113
 20
-65.7866
 11
156.007
 21
-65.7966
  0
LINE
  8
0
 10
156.007
 20
-65.7966
 11
155.9
 21
-65.8
  0
LINE
  8
0
 10
155.9
 20
-65.8
 11
155.793
 21
-65.7966
  0
LINE
  8
0
 10
129.724
 20
-70.0945
 11
129.549
 21
-70.0779
  0
LINE
  8
0
 10
129.549
 20
-70.0779
 11
129.375
 21
-70.0504
  0
LINE
  8
0
 10
129.375
 20
-70.0504
 11
129.204
 21
-70.012
  0
LINE
  8
0
 10
129.204
 20
-70.012
 11
129.035
 21
-69.963
  0
LINE
  8
0
 10
129.035
 20
-69.963
 11
128.869
 21
-69.9034
  0
LINE
  8
0
 10
128.869
 20
-69.9034
 11
128.708
 21
-69.8335
  0
LINE
  8
0
 10
128.708
 20
-69.8335
 11
128.551
 21
-69.7537
  0
LINE
  8
0
 10
128.551
 20
-69.7537
 11
128.4
 21
-69.6641
  0
LINE
  8
0
 10
128.4
 20
-69.6641
 11
128.254
 21
-69.5652
  0
LINE
  8
0
 10
128.254
 20
-69.5652
 11
128.115
 21
-69.4574
  0
LINE
  8
0
 10
128.115
 20
-69.4574
 11
127.983
 21
-69.3411
  0
LINE
  8
0
 10
127.983
 20
-69.3411
 11
127.859
 21
-69.2167
  0
LINE
  8
0
 10
127.859
 20
-69.2167
 11
127.743
 21
-69.0848
  0
LINE
  8
0
 10
127.743
 20
-69.0848
 11
127.635
 21
-68.9458
  0
LINE
  8
0
 10
127.635
 20
-68.9458
 11
127.536
 21
-68.8003
  0
LINE
  8
0
 10
127.536
 20
-68.8003
 11
127.446
 21
-68.6489
  0
LINE
  8
0
 10
127.446
 20
-68.6489
 11
127.366
 21
-68.4922
  0
LINE
  8
0
 10
127.366
 20
-68.4922
 11
127.297
 21
-68.3307
  0
LINE
  8
0
 10
127.297
 20
-68.3307
 11
127.237
 21
-68.1652
  0
LINE
  8
0
 10
127.237
 20
-68.1652
 11
127.188
 21
-67.9963
  0
LINE
  8
0
 10
127.188
 20
-67.9963
 11
127.15
 21
-67.8247
  0
LINE
  8
0
 10
127.15
 20
-67.8247
 11
127.122
 21
-67.6509
  0
LINE
  8
0
 10
127.122
 20
-67.6509
 11
127.106
 21
-67.4758
  0
LINE
  8
0
 10
127.106
 20
-67.4758
 11
127.1
 21
-67.3
  0
LINE
  8
0
 10
127.1
 20
-67.3
 11
127.106
 21
-67.1242
  0
LINE
  8
0
 10
127.106
 20
-67.1242
 11
127.122
 21
-66.9491
  0
LINE
  8
0
 10
127.122
 20
-66.9491
 11
127.15
 21
-66.7753
  0
LINE
  8
0
 10
127.15
 20
-66.7753
 11
127.188
 21
-66.6037
  0
LINE
  8
0
 10
127.188
 20
-66.6037
 11
127.237
 21
-66.4348
  0
LINE
  8
0
 10
127.237
 20
-66.4348
 11
127.297
 21
-66.2693
  0
LINE
  8
0
 10
127.297
 20
-66.2693
 11
127.366
 21
-66.1078
  0
LINE
  8
0
 10
127.366
 20
-66.1078
 11
127.446
 21
-65.9511
  0
LINE
  8
0
 10
127.446
 20
-65.9511
 11
127.536
 21
-65.7997
  0
LINE
  8
0
 10
127.536
 20
-65.7997
 11
127.635
 21
-65.6542
  0
LINE
  8
0
 10
127.635
 20
-65.6542
 11
127.743
 21
-65.5152
  0
LINE
  8
0
 10
127.743
 20
-65.5152
 11
127.859
 21
-65.3833
  0
LINE
  8
0
 10
127.859
 20
-65.3833
 11
127.983
 21
-65.2589
  0
LINE
  8
0
 10
127.983
 20
-65.2589
 11
128.115
 21
-65.1426
  0
LINE
  8
0
 10
128.115
 20
-65.1426
 11
128.254
 21
-65.0347
  0
LINE
  8
0
 10
128.254
 20
-65.0347
 11
128.4
 21
-64.9359
  0
LINE
  8
0
 10
128.4
 20
-64.9359
 11
128.551
 21
-64.8463
  0
LINE
  8
0
 10
128.551
 20
-64.8463
 11
128.708
 21
-64.7665
  0
LINE
  8
0
 10
128.708
 20
-64.7665
 11
128.869
 21
-64.6966
  0
LINE
  8
0
 10
128.869
 20
-64.6966
 11
129.035
 21
-64.637
  0
LINE
  8
0
 10
129.035
 20
-64.637
 11
129.204
 21
-64.588
  0
LINE
  8
0
 10
129.204
 20
-64.588
 11
129.375
 21
-64.5496
  0
LINE
  8
0
 10
129.375
 20
-64.5496
 11
129.549
 21
-64.5221
  0
LINE
  8
0
 10
129.549
 20
-64.5221
 11
129.724
 21
-64.5055
  0
LINE
  8
0
 10
129.724
 20
-64.5055
 11
129.9
 21
-64.5
  0
LINE
  8
0
 10
129.9
 20
-64.5
 11
130.076
 21
-64.5055
  0
LINE
  8
0
 10
130.076
 20
-64.5055
 11
130.251
 21
-64.5221
  0
LINE
  8
0
 10
130.251
 20
-64.5221
 11
130.425
 21
-64.5496
  0
LINE
  8
0
 10
130.425
 20
-64.5496
 11
130.596
 21
-64.588
  0
LINE
  8
0
 10
130.596
 20
-64.588
 11
130.765
 21
-64.637
  0
LINE
  8
0
 10
130.765
 20
-64.637
 11
130.931
 21
-64.6966
  0
LINE
  8
0
 10
130.931
 20
-64.6966
 11
131.092
 21
-64.7665
  0
LINE
  8
0
 10
131.092
 20
-64.7665
 11
131.249
 21
-64.8463
  0
LINE
  8
0
 10
131.249
 20
-64.8463
 11
131.4
 21
-64.9359
  0
LINE
  8
0
 10
131.4
 20
-64.9359
 11
131.546
 21
-65.0347
  0
LINE
  8
0
 10
131.546
 20
-65.0347
 11
131.685
 21
-65.1426
  0
LINE
  8
0
 10
131.685
 20
-65.1426
 11
131.817
 21
-65.2589
  0
LINE
  8
0
 10
131.817
 20
-65.2589
 11
131.941
 21
-65.3833
  0
LINE
  8
0
 10
131.941
 20
-65.3833
 11
132.057
 21
-65.5152
  0
LINE
  8
0
 10
132.057
 20
-65.5152
 11
132.165
 21
-65.6542
  0
LINE
  8
0
 10
132.165
 20
-65.6542
 11
132.264
 21
-65.7997
  0
LINE
  8
0
 10
132.264
 20
-65.7997
 11
132.354
 21
-65.9511
  0
LINE
  8
0
 10
132.354
 20
-65.9511
 11
132.434
 21
-66.1078
  0
LINE
  8
0
 10
132.434
 20
-66.1078
 11
132.503
 21
-66.2693
  0
LINE
  8
0
 10
132.503
 20
-66.2693
 11
132.563
 21
-66.4348
  0
LINE
  8
0
 10
132.563
 20
-66.4348
 11
132.612
 21
-66.6037
  0
LINE
  8
0
 10
132.612
 20
-66.6037
 11
132.65
 21
-66.7753
  0
LINE
  8
0
 10
132.65
 20
-66.7753
 11
132.678
 21
-66.9491
  0
LINE
  8
0
 10
132.678
 20
-66.9491
 11
132.694
 21
-67.1242
  0
LINE
  8
0
 10
132.694
 20
-67.1242
 11
132.7
 21
-67.3
  0
LINE
  8
0
 10
132.7
 20
-67.3
 11
132.694
 21
-67.4758
  0
LINE
  8
0
 10
132.694
 20
-67.4758
 11
132.678
 21
-67.6509
  0
LINE
  8
0
 10
132.678
 20
-67.6509
 11
132.65
 21
-67.8247
  0
LINE
  8
0
 10
132.65
 20
-67.8247
 11
132.612
 21
-67.9963
  0
LINE
  8
0
 10
132.612
 20
-67.9963
 11
132.563
 21
-68.1652
  0
LINE
  8
0
 10
132.563
 20
-68.1652
 11
132.503
 21
-68.3307
  0
LINE
  8
0
 10
132.503
 20
-68.3307
 11
132.434
 21
-68.4922
  0
LINE
  8
0
 10
132.434
 20
-68.4922
 11
132.354
 21
-68.6489
  0
LINE
  8
0
 10
132.354
 20
-68.6489
 11
132.264
 21
-68.8003
  0
LINE
  8
0
 10
132.264
 20
-68.8003
 11
132.165
 21
-68.9458
  0
LINE
  8
0
 10
132.165
 20
-68.9458
 11
132.057
 21
-69.0848
  0
LINE
  8
0
 10
132.057
 20
-69.0848
 11
131.941
 21
-69.2167
  0
LINE
  8
0
 10
131.941
 20
-69.2167
 11
131.817
 21
-69.3411
  0
LINE
  8
0
 10
131.817
 20
-69.3411
 11
131.685
 21
-69.4574
  0
LINE
  8
0
 10
131.685
 20
-69.4574
 11
131.546
 21
-69.5652
  0
LINE
  8
0
 10
131.546
 20
-69.5652
 11
131.4
 21
-69.6641
  0
LINE
  8
0
 10
131.4
 20
-69.6641
 11
131.249
 21
-69.7537
  0
LINE
  8
0
 10
131.249
 20
-69.7537
 11
131.092
 21
-69.8335
  0
LINE
  8
0
 10
131.092
 20
-69.8335
 11
130.931
 21
-69.9034
  0
LINE
  8
0
 10
130.931
 20
-69.9034
 11
130.765
 21
-69.963
  0
LINE
  8
0
 10
130.765
 20
-69.963
 11
130.596
 21
-70.012
  0
LINE
  8
0
 10
130.596
 20
-70.012
 11
130.425
 21
-70.0504
  0
LINE
  8
0
 10
130.425
 20
-70.0504
 11
130.251
 21
-70.0779
  0
LINE
  8
0
 10
130.251
 20
-70.0779
 11
130.076
 21
-70.0945
  0
LINE
  8
0
 10
130.076
 20
-70.0945
 11
129.9
 21
-70.1
  0
LINE
  8
0
 10
129.9
 20
-70.1
 11
129.724
 21
-70.0945
  0
LINE
  8
0
 10
106.3
 20
-106.4
 11
106.3
 21
-73.8
  0
LINE
  8
0
 10
106.3
 20
-73.8
 11
148.9
 21
-73.8
  0
LINE
  8
0
 10
148.9
 20
-73.8
 11
148.9
 21
-106.4
  0
LINE
  8
0
 10
148.9
 20
-106.4
 11
106.3
 21
-106.4
  0
LINE
  8
0
 10
103.793
 20
-117.797
 11
103.687
 21
-117.787
  0
LINE
  8
0
 10
103.687
 20
-117.787
 11
103.581
 21
-117.77
  0
LINE
  8
0
 10
103.581
 20
-117.77
 11
103.477
 21
-117.747
  0
LINE
  8
0
 10
103.477
 20
-117.747
 11
103.375
 21
-117.717
  0
LINE
  8
0
 10
103.375
 20
-117.717
 11
103.274
 21
-117.681
  0
LINE
  8
0
 10
103.274
 20
-117.681
 11
103.176
 21
-117.638
  0
LINE
  8
0
 10
103.176
 20
-117.638
 11
103.081
 21
-117.59
  0
LINE
  8
0
 10
103.081
 20
-117.59
 11
102.989
 21
-117.535
  0
LINE
  8
0
 10
102.989
 20
-117.535
 11
102.901
 21
-117.475
  0
LINE
  8
0
 10
102.901
 20
-117.475
 11
102.816
 21
-117.41
  0
LINE
  8
0
 10
102.816
 20
-117.41
 11
102.736
 21
-117.339
  0
LINE
  8
0
 10
102.736
 20
-117.339
 11
102.661
 21
-117.264
  0
LINE
  8
0
 10
102.661
 20
-117.264
 11
102.59
 21
-117.184
  0
LINE
  8
0
 10
102.59
 20
-117.184
 11
102.525
 21
-117.099
  0
LINE
  8
0
 10
102.525
 20
-117.099
 11
102.465
 21
-117.011
  0
LINE
  8
0
 10
102.465
 20
-117.011
 11
102.41
 21
-116.919
  0
LINE
  8
0
 10
102.41
 20
-116.919
 11
102.362
 21
-116.824
  0
LINE
  8
0
 10
102.362
 20
-116.824
 11
102.319
 21
-116.726
  0
LINE
  8
0
 10
102.319
 20
-116.726
 11
102.283
 21
-116.625
  0
LINE
  8
0
 10
102.283
 20
-116.625
 11
102.253
 21
-116.523
  0
LINE
  8
0
 10
102.253
 20
-116.523
 11
102.23
 21
-116.419
  0
LINE
  8
0
 10
102.23
 20
-116.419
 11
102.213
 21
-116.313
  0
LINE
  8
0
 10
102.213
 20
-116.313
 11
102.203
 21
-116.207
  0
LINE
  8
0
 10
102.203
 20
-116.207
 11
102.2
 21
-116.1
  0
LINE
  8
0
 10
102.2
 20
-116.1
 11
102.203
 21
-115.993
  0
LINE
  8
0
 10
102.203
 20
-115.993
 11
102.213
 21
-115.887
  0
LINE
  8
0
 10
102.213
 20
-115.887
 11
102.23
 21
-115.781
  0
LINE
  8
0
 10
102.23
 20
-115.781
 11
102.253
 21
-115.677
  0
LINE
  8
0
 10
102.253
 20
-115.677
 11
102.283
 21
-115.575
  0
LINE
  8
0
 10
102.283
 20
-115.575
 11
102.319
 21
-115.474
  0
LINE
  8
0
 10
102.319
 20
-115.474
 11
102.362
 21
-115.376
  0
LINE
  8
0
 10
102.362
 20
-115.376
 11
102.41
 21
-115.281
  0
LINE
  8
0
 10
102.41
 20
-115.281
 11
102.465
 21
-115.189
  0
LINE
  8
0
 10
102.465
 20
-115.189
 11
102.525
 21
-115.101
  0
LINE
  8
0
 10
102.525
 20
-115.101
 11
102.59
 21
-115.016
  0
LINE
  8
0
 10
102.59
 20
-115.016
 11
102.661
 21
-114.936
  0
LINE
  8
0
 10
102.661
 20
-114.936
 11
102.736
 21
-114.861
  0
LINE
  8
0
 10
102.736
 20
-114.861
 11
102.816
 21
-114.79
  0
LINE
  8
0
 10
102.816
 20
-114.79
 11
102.901
 21
-114.725
  0
LINE
  8
0
 10
102.901
 20
-114.725
 11
102.989
 21
-114.665
  0
LINE
  8
0
 10
102.989
 20
-114.665
 11
103.081
 21
-114.61
  0
LINE
  8
0
 10
103.081
 20
-114.61
 11
103.176
 21
-114.562
  0
LINE
  8
0
 10
103.176
 20
-114.562
 11
103.274
 21
-114.519
  0
LINE
  8
0
 10
103.274
 20
-114.519
 11
103.375
 21
-114.483
  0
LINE
  8
0
 10
103.375
 20
-114.483
 11
103.477
 21
-114.453
  0
LINE
  8
0
 10
103.477
 20
-114.453
 11
103.581
 21
-114.43
  0
LINE
  8
0
 10
103.581
 20
-114.43
 11
103.687
 21
-114.413
  0
LINE
  8
0
 10
103.687
 20
-114.413
 11
103.793
 21
-114.403
  0
LINE
  8
0
 10
103.793
 20
-114.403
 11
103.9
 21
-114.4
  0
LINE
  8
0
 10
103.9
 20
-114.4
 11
104.007
 21
-114.403
  0
LINE
  8
0
 10
104.007
 20
-114.403
 11
104.113
 21
-114.413
  0
LINE
  8
0
 10
104.113
 20
-114.413
 11
104.219
 21
-114.43
  0
LINE
  8
0
 10
104.219
 20
-114.43
 11
104.323
 21
-114.453
  0
LINE
  8
0
 10
104.323
 20
-114.453
 11
104.425
 21
-114.483
  0
LINE
  8
0
 10
104.425
 20
-114.483
 11
104.526
 21
-114.519
  0
LINE
  8
0
 10
104.526
 20
-114.519
 11
104.624
 21
-114.562
  0
LINE
  8
0
 10
104.624
 20
-114.562
 11
104.719
 21
-114.61
  0
LINE
  8
0
 10
104.719
 20
-114.61
 11
104.811
 21
-114.665
  0
LINE
  8
0
 10
104.811
 20
-114.665
 11
104.899
 21
-114.725
  0
LINE
  8
0
 10
104.899
 20
-114.725
 11
104.984
 21
-114.79
  0
LINE
  8
0
 10
104.984
 20
-114.79
 11
105.064
 21
-114.861
  0
LINE
  8
0
 10
105.064
 20
-114.861
 11
105.139
 21
-114.936
  0
LINE
  8
0
 10
105.139
 20
-114.936
 11
105.21
 21
-115.016
  0
LINE
  8
0
 10
105.21
 20
-115.016
 11
105.275
 21
-115.101
  0
LINE
  8
0
 10
105.275
 20
-115.101
 11
105.335
 21
-115.189
  0
LINE
  8
0
 10
105.335
 20
-115.189
 11
105.39
 21
-115.281
  0
LINE
  8
0
 10
105.39
 20
-115.281
 11
105.438
 21
-115.376
  0
LINE
  8
0
 10
105.438
 20
-115.376
 11
105.481
 21
-115.474
  0
LINE
  8
0
 10
105.481
 20
-115.474
 11
105.517
 21
-115.575
  0
LINE
  8
0
 10
105.517
 20
-115.575
 11
105.547
 21
-115.677
  0
LINE
  8
0
 10
105.547
 20
-115.677
 11
105.57
 21
-115.781
  0
LINE
  8
0
 10
105.57
 20
-115.781
 11
105.587
 21
-115.887
  0
LINE
  8
0
 10
105.587
 20
-115.887
 11
105.597
 21
-115.993
  0
LINE
  8
0
 10
105.597
 20
-115.993
 11
105.6
 21
-116.1
  0
LINE
  8
0
 10
105.6
 20
-116.1
 11
105.597
 21
-116.207
  0
LINE
  8
0
 10
105.597
 20
-116.207
 11
105.587
 21
-116.313
  0
LINE
  8
0
 10
105.587
 20
-116.313
 11
105.57
 21
-116.419
  0
LINE
  8
0
 10
105.57
 20
-116.419
 11
105.547
 21
-116.523
  0
LINE
  8
0
 10
105.547
 20
-116.523
 11
105.517
 21
-116.625
  0
LINE
  8
0
 10
105.517
 20
-116.625
 11
105.481
 21
-116.726
  0
LINE
  8
0
 10
105.481
 20
-116.726
 11
105.438
 21
-116.824
  0
LINE
  8
0
 10
105.438
 20
-116.824
 11
105.39
 21
-116.919
  0
LINE
  8
0
 10
105.39
 20
-116.919
 11
105.335
 21
-117.011
  0
LINE
  8
0
 10
105.335
 20
-117.011
 11
105.275
 21
-117.099
  0
LINE
  8
0
 10
105.275
 20
-117.099
 11
105.21
 21
-117.184
  0
LINE
  8
0
 10
105.21
 20
-117.184
 11
105.139
 21
-117.264
  0
LINE
  8
0
 10
105.139
 20
-117.264
 11
105.064
 21
-117.339
  0
LINE
  8
0
 10
105.064
 20
-117.339
 11
104.984
 21
-117.41
  0
LINE
  8
0
 10
104.984
 20
-117.41
 11
104.899
 21
-117.475
  0
LINE
  8
0
 10
104.899
 20
-117.475
 11
104.811
 21
-117.535
  0
LINE
  8
0
 10
104.811
 20
-117.535
 11
104.719
 21
-117.59
  0
LINE
  8
0
 10
104.719
 20
-117.59
 11
104.624
 21
-117.638
  0
LINE
  8
0
 10
104.624
 20
-117.638
 11
104.526
 21
-117.681
  0
LINE
  8
0
 10
104.526
 20
-117.681
 11
104.425
 21
-117.717
  0
LINE
  8
0
 10
104.425
 20
-117.717
 11
104.323
 21
-117.747
  0
LINE
  8
0
 10
104.323
 20
-117.747
 11
104.219
 21
-117.77
  0
LINE
  8
0
 10
104.219
 20
-117.77
 11
104.113
 21
-117.787
  0
LINE
  8
0
 10
104.113
 20
-117.787
 11
104.007
 21
-117.797
  0
LINE
  8
0
 10
104.007
 20
-117.797
 11
103.9
 21
-117.8
  0
LINE
  8
0
 10
103.9
 20
-117.8
 11
103.793
 21
-117.797
  0
LINE
  8
0
 10
155.793
 20
-117.797
 11
155.687
 21
-117.787
  0
LINE
  8
0
 10
155.687
 20
-117.787
 11
155.581
 21
-117.77
  0
LINE
  8
0
 10
155.581
 20
-117.77
 11
155.477
 21
-117.747
  0
LINE
  8
0
 10
155.477
 20
-117.747
 11
155.375
 21
-117.717
  0
LINE
  8
0
 10
155.375
 20
-117.717
 11
155.274
 21
-117.681
  0
LINE
  8
0
 10
155.274
 20
-117.681
 11
155.176
 21
-117.638
  0
LINE
  8
0
 10
155.176
 20
-117.638
 11
155.081
 21
-117.59
  0
LINE
  8
0
 10
155.081
 20
-117.59
 11
154.989
 21
-117.535
  0
LINE
  8
0
 10
154.989
 20
-117.535
 11
154.901
 21
-117.475
  0
LINE
  8
0
 10
154.901
 20
-117.475
 11
154.816
 21
-117.41
  0
LINE
  8
0
 10
154.816
 20
-117.41
 11
154.736
 21
-117.339
  0
LINE
  8
0
 10
154.736
 20
-117.339
 11
154.661
 21
-117.264
  0
LINE
  8
0
 10
154.661
 20
-117.264
 11
154.59
 21
-117.184
  0
LINE
  8
0
 10
154.59
 20
-117.184
 11
154.525
 21
-117.099
  0
LINE
  8
0
 10
154.525
 20
-117.099
 11
154.465
 21
-117.011
  0
LINE
  8
0
 10
154.465
 20
-117.011
 11
154.41
 21
-116.919
  0
LINE
  8
0
 10
154.41
 20
-116.919
 11
154.362
 21
-116.824
  0
LINE
  8
0
 10
154.362
 20
-116.824
 11
154.319
 21
-116.726
  0
LINE
  8
0
 10
154.319
 20
-116.726
 11
154.283
 21
-116.625
  0
LINE
  8
0
 10
154.283
 20
-116.625
 11
154.253
 21
-116.523
  0
LINE
  8
0
 10
154.253
 20
-116.523
 11
154.23
 21
-116.419
  0
LINE
  8
0
 10
154.23
 20
-116.419
 11
154.213
 21
-116.313
  0
LINE
  8
0
 10
154.213
 20
-116.313
 11
154.203
 21
-116.207
  0
LINE
  8
0
 10
154.203
 20
-116.207
 11
154.2
 21
-116.1
  0
LINE
  8
0
 10
154.2
 20
-116.1
 11
154.203
 21
-115.993
  0
LINE
  8
0
 10
154.203
 20
-115.993
 11
154.213
 21
-115.887
  0
LINE
  8
0
 10
154.213
 20
-115.887
 11
154.23
 21
-115.781
  0
LINE
  8
0
 10
154.23
 20
-115.781
 11
154.253
 21
-115.677
  0
LINE
  8
0
 10
154.253
 20
-115.677
 11
154.283
 21
-115.575
  0
LINE
  8
0
 10
154.283
 20
-115.575
 11
154.319
 21
-115.474
  0
LINE
  8
0
 10
154.319
 20
-115.474
 11
154.362
 21
-115.376
  0
LINE
  8
0
 10
154.362
 20
-115.376
 11
154.41
 21
-115.281
  0
LINE
  8
0
 10
154.41
 20
-115.281
 11
154.465
 21
-115.189
  0
LINE
  8
0
 10
154.465
 20
-115.189
 11
154.525
 21
-115.101
  0
LINE
  8
0
 10
154.525
 20
-115.101
 11
154.59
 21
-115.016
  0
LINE
  8
0
 10
154.59
 20
-115.016
 11
154.661
 21
-114.936
  0
LINE
  8
0
 10
154.661
 20
-114.936
 11
154.736
 21
-114.861
  0
LINE
  8
0
 10
154.736
 20
-114.861
 11
154.816
 21
-114.79
  0
LINE
  8
0
 10
154.816
 20
-114.79
 11
154.901
 21
-114.725
  0
LINE
  8
0
 10
154.901
 20
-114.725
 11
154.989
 21
-114.665
  0
LINE
  8
0
 10
154.989
 20
-114.665
 11
155.081
 21
-114.61
  0
LINE
  8
0
 10
155.081
 20
-114.61
 11
155.176
 21
-114.562
  0
LINE
  8
0
 10
155.176
 20
-114.562
 11
155.274
 21
-114.519
  0
LINE
  8
0
 10
155.274
 20
-114.519
 11
155.375
 21
-114.483
  0
LINE
  8
0
 10
155.375
 20
-114.483
 11
155.477
 21
-114.453
  0
LINE
  8
0
 10
155.477
 20
-114.453
 11
155.581
 21
-114.43
  0
LINE
  8
0
 10
155.581
 20
-114.43
 11
155.687
 21
-114.413
  0
LINE
  8
0
 10
155.687
 20
-114.413
 11
155.793
 21
-114.403
  0
LINE
  8
0
 10
155.793
 20
-114.403
 11
155.9
 21
-114.4
  0
LINE
  8
0
 10
155.9
 20
-114.4
 11
156.007
 21
-114.403
  0
LINE
  8
0
 10
156.007
 20
-114.403
 11
156.113
 21
-114.413
  0
LINE
  8
0
 10
156.113
 20
-114.413
 11
156.219
 21
-114.43
  0
LINE
  8
0
 10
156.219
 20
-114.43
 11
156.323
 21
-114.453
  0
LINE
  8
0
 10
156.323
 20
-114.453
 11
156.425
 21
-114.483
  0
LINE
  8
0
 10
156.425
 20
-114.483
 11
156.526
 21
-114.519
  0
LINE
  8
0
 10
156.526
 20
-114.519
 11
156.624
 21
-114.562
  0
LINE
  8
0
 10
156.624
 20
-114.562
 11
156.719
 21
-114.61
  0
LINE
  8
0
 10
156.719
 20
-114.61
 11
156.811
 21
-114.665
  0
LINE
  8
0
 10
156.811
 20
-114.665
 11
156.899
 21
-114.725
  0
LINE
  8
0
 10
156.899
 20
-114.725
 11
156.984
 21
-114.79
  0
LINE
  8
0
 10
156.984
 20
-114.79
 11
157.064
 21
-114.861
  0
LINE
  8
0
 10
157.064
 20
-114.861
 11
157.139
 21
-114.936
  0
LINE
  8
0
 10
157.139
 20
-114.936
 11
157.21
 21
-115.016
  0
LINE
  8
0
 10
157.21
 20
-115.016
 11
157.275
 21
-115.101
  0
LINE
  8
0
 10
157.275
 20
-115.101
 11
157.335
 21
-115.189
  0
LINE
  8
0
 10
157.335
 20
-115.189
 11
157.39
 21
-115.281
  0
LINE
  8
0
 10
157.39
 20
-115.281
 11
157.438
 21
-115.376
  0
LINE
  8
0
 10
157.438
 20
-115.376
 11
157.481
 21
-115.474
  0
LINE
  8
0
 10
157.481
 20
-115.474
 11
157.517
 21
-115.575
  0
LINE
  8
0
 10
157.517
 20
-115.575
 11
157.547
 21
-115.677
  0
LINE
  8
0
 10
157.547
 20
-115.677
 11
157.57
 21
-115.781
  0
LINE
  8
0
 10
157.57
 20
-115.781
 11
157.587
 21
-115.887
  0
LINE
  8
0
 10
157.587
 20
-115.887
 11
157.597
 21
-115.993
  0
LINE
  8
0
 10
157.597
 20
-115.993
 11
157.6
 21
-116.1
  0
LINE
  8
0
 10
157.6
 20
-116.1
 11
157.597
 21
-116.207
  0
LINE
  8
0
 10
157.597
 20
-116.207
 11
157.587
 21
-116.313
  0
LINE
  8
0
 10
157.587
 20
-116.313
 11
157.57
 21
-116.419
  0
LINE
  8
0
 10
157.57
 20
-116.419
 11
157.547
 21
-116.523
  0
LINE
  8
0
 10
157.547
 20
-116.523
 11
157.517
 21
-116.625
  0
LINE
  8
0
 10
157.517
 20
-116.625
 11
157.481
 21
-116.726
  0
LINE
  8
0
 10
157.481
 20
-116.726
 11
157.438
 21
-116.824
  0
LINE
  8
0
 10
157.438
 20
-116.824
 11
157.39
 21
-116.919
  0
LINE
  8
0
 10
157.39
 20
-116.919
 11
157.335
 21
-117.011
  0
LINE
  8
0
 10
157.335
 20
-117.011
 11
157.275
 21
-117.099
  0
LINE
  8
0
 10
157.275
 20
-117.099
 11
157.21
 21
-117.184
  0
LINE
  8
0
 10
157.21
 20
-117.184
 11
157.139
 21
-117.264
  0
LINE
  8
0
 10
157.139
 20
-117.264
 11
157.064
 21
-117.339
  0
LINE
  8
0
 10
157.064
 20
-117.339
 11
156.984
 21
-117.41
  0
LINE
  8
0
 10
156.984
 20
-117.41
 11
156.899
 21
-117.475
  0
LINE
  8
0
 10
156.899
 20
-117.475
 11
156.811
 21
-117.535
  0
LINE
  8
0
 10
156.811
 20
-117.535
 11
156.719
 21
-117.59
  0
LINE
  8
0
 10
156.719
 20
-117.59
 11
156.624
 21
-117.638
  0
LINE
  8
0
 10
156.624
 20
-117.638
 11
156.526
 21
-117.681
  0
LINE
  8
0
 10
156.526
 20
-117.681
 11
156.425
 21
-117.717
  0
LINE
  8
0
 10
156.425
 20
-117.717
 11
156.323
 21
-117.747
  0
LINE
  8
0
 10
156.323
 20
-117.747
 11
156.219
 21
-117.77
  0
LINE
  8
0
 10
156.219
 20
-117.77
 11
156.113
 21
-117.787
  0
LINE
  8
0
 10
156.113
 20
-117.787
 11
156.007
 21
-117.797
  0
LINE
  8
0
 10
156.007
 20
-117.797
 11
155.9
 21
-117.8
  0
LINE
  8
0
 10
155.9
 20
-117.8
 11
155.793
 21
-117.797
  0
LINE
  8
0
 10
99.655
 20
-125.105
 11
101.4
 21
-125.105
  0
LINE
  8
0
 10
101.4
 20
-125.105
 11
101.4
 21
-125.095
  0
LINE
  8
0
 10
101.4
 20
-125.095
 11
99.655
 21
-125.095
  0
LINE
  8
0
 10
99.655
 20
-125.095
 11
99.655
 21
-123.35
  0
LINE
  8
0
 10
99.655
 20
-123.35
 11
99.645
 21
-123.35
  0
LINE
  8
0
 10
99.645
 20
-123.35
 11
99.645
 21
-125.095
  0
LINE
  8
0
 10
99.645
 20
-125.095
 11
97.9
 21
-125.095
  0
LINE
  8
0
 10
97.9
 20
-125.095
 11
97.9
 21
-125.105
  0
LINE
  8
0
 10
97.9
 20
-125.105
 11
99.645
 21
-125.105
  0
LINE
  8
0
 10
99.645
 20
-125.105
 11
99.645
 21
-126.85
  0
LINE
  8
0
 10
99.645
 20
-126.85
 11
99.655
 21
-126.85
  0
LINE
  8
0
 10
99.655
 20
-126.85
 11
99.655
 21
-125.105
  0
ENDSEC
  0
SECTION
  2
OBJECTS
  0
DICTIONARY
  0
ENDSEC
  0
EOF
