  0
SECTION
  2
BLOCKS
  0
ENDSEC
  0
SECTION
  2
ENTITIES
  0
LINE
  8
0
 10
162.5
 20
-57.5
 11
97.3
 21
-57.5
  0
LINE
  8
0
 10
97.3
 20
-57.5
 11
97.3
 21
-122.7
  0
LINE
  8
0
 10
97.3
 20
-122.7
 11
162.5
 21
-122.7
  0
LINE
  8
0
 10
162.5
 20
-122.7
 11
162.5
 21
-57.5
  0
LINE
  8
0
 10
103.793
 20
-65.7966
 11
103.687
 21
-65.7866
  0
LINE
  8
0
 10
103.687
 20
-65.7866
 11
103.581
 21
-65.7699
  0
LINE
  8
0
 10
103.581
 20
-65.7699
 11
103.477
 21
-65.7466
  0
LINE
  8
0
 10
103.477
 20
-65.7466
 11
103.375
 21
-65.7168
  0
LINE
  8
0
 10
103.375
 20
-65.7168
 11
103.274
 21
-65.6806
  0
LINE
  8
0
 10
103.274
 20
-65.6806
 11
103.176
 21
-65.6382
  0
LINE
  8
0
 10
103.176
 20
-65.6382
 11
103.081
 21
-65.5897
  0
LINE
  8
0
 10
103.081
 20
-65.5897
 11
102.989
 21
-65.5354
  0
LINE
  8
0
 10
102.989
 20
-65.5354
 11
102.901
 21
-65.4753
  0
LINE
  8
0
 10
102.901
 20
-65.4753
 11
102.816
 21
-65.4099
  0
LINE
  8
0
 10
102.816
 20
-65.4099
 11
102.736
 21
-65.3392
  0
LINE
  8
0
 10
102.736
 20
-65.3392
 11
102.661
 21
-65.2637
  0
LINE
  8
0
 10
102.661
 20
-65.2637
 11
102.59
 21
-65.1836
  0
LINE
  8
0
 10
102.59
 20
-65.1836
 11
102.525
 21
-65.0992
  0
LINE
  8
0
 10
102.525
 20
-65.0992
 11
102.465
 21
-65.0109
  0
LINE
  8
0
 10
102.465
 20
-65.0109
 11
102.41
 21
-64.919
  0
LINE
  8
0
 10
102.41
 20
-64.919
 11
102.362
 21
-64.8238
  0
LINE
  8
0
 10
102.362
 20
-64.8238
 11
102.319
 21
-64.7258
  0
LINE
  8
0
 10
102.319
 20
-64.7258
 11
102.283
 21
-64.6253
  0
LINE
  8
0
 10
102.283
 20
-64.6253
 11
102.253
 21
-64.5228
  0
LINE
  8
0
 10
102.253
 20
-64.5228
 11
102.23
 21
-64.4185
  0
LINE
  8
0
 10
102.23
 20
-64.4185
 11
102.213
 21
-64.3131
  0
LINE
  8
0
 10
102.213
 20
-64.3131
 11
102.203
 21
-64.2067
  0
LINE
  8
0
 10
102.203
 20
-64.2067
 11
102.2
 21
-64.1
  0
LINE
  8
0
 10
102.2
 20
-64.1
 11
102.203
 21
-63.9933
  0
LINE
  8
0
 10
102.203
 20
-63.9933
 11
102.213
 21
-63.8869
  0
LINE
  8
0
 10
102.213
 20
-63.8869
 11
102.23
 21
-63.7814
  0
LINE
  8
0
 10
102.23
 20
-63.7814
 11
102.253
 21
-63.6772
  0
LINE
  8
0
 10
102.253
 20
-63.6772
 11
102.283
 21
-63.5747
  0
LINE
  8
0
 10
102.283
 20
-63.5747
 11
102.319
 21
-63.4742
  0
LINE
  8
0
 10
102.319
 20
-63.4742
 11
102.362
 21
-63.3762
  0
LINE
  8
0
 10
102.362
 20
-63.3762
 11
102.41
 21
-63.281
  0
LINE
  8
0
 10
102.41
 20
-63.281
 11
102.465
 21
-63.1891
  0
LINE
  8
0
 10
102.465
 20
-63.1891
 11
102.525
 21
-63.1008
  0
LINE
  8
0
 10
102.525
 20
-63.1008
 11
102.59
 21
-63.0164
  0
LINE
  8
0
 10
102.59
 20
-63.0164
 11
102.661
 21
-62.9363
  0
LINE
  8
0
 10
102.661
 20
-62.9363
 11
102.736
 21
-62.8607
  0
LINE
  8
0
 10
102.736
 20
-62.8607
 11
102.816
 21
-62.7901
  0
LINE
  8
0
 10
102.816
 20
-62.7901
 11
102.901
 21
-62.7247
  0
LINE
  8
0
 10
102.901
 20
-62.7247
 11
102.989
 21
-62.6646
  0
LINE
  8
0
 10
102.989
 20
-62.6646
 11
103.081
 21
-62.6103
  0
LINE
  8
0
 10
103.081
 20
-62.6103
 11
103.176
 21
-62.5618
  0
LINE
  8
0
 10
103.176
 20
-62.5618
 11
103.274
 21
-62.5194
  0
LINE
  8
0
 10
103.274
 20
-62.5194
 11
103.375
 21
-62.4832
  0
LINE
  8
0
 10
103.375
 20
-62.4832
 11
103.477
 21
-62.4534
  0
LINE
  8
0
 10
103.477
 20
-62.4534
 11
103.581
 21
-62.4301
  0
LINE
  8
0
 10
103.581
 20
-62.4301
 11
103.687
 21
-62.4134
  0
LINE
  8
0
 10
103.687
 20
-62.4134
 11
103.793
 21
-62.4034
  0
LINE
  8
0
 10
103.793
 20
-62.4034
 11
103.9
 21
-62.4
  0
LINE
  8
0
 10
103.9
 20
-62.4
 11
104.007
 21
-62.4034
  0
LINE
  8
0
 10
104.007
 20
-62.4034
 11
104.113
 21
-62.4134
  0
LINE
  8
0
 10
104.113
 20
-62.4134
 11
104.219
 21
-62.4301
  0
LINE
  8
0
 10
104.219
 20
-62.4301
 11
104.323
 21
-62.4534
  0
LINE
  8
0
 10
104.323
 20
-62.4534
 11
104.425
 21
-62.4832
  0
LINE
  8
0
 10
104.425
 20
-62.4832
 11
104.526
 21
-62.5194
  0
LINE
  8
0
 10
104.526
 20
-62.5194
 11
104.624
 21
-62.5618
  0
LINE
  8
0
 10
104.624
 20
-62.5618
 11
104.719
 21
-62.6103
  0
LINE
  8
0
 10
104.719
 20
-62.6103
 11
104.811
 21
-62.6646
  0
LINE
  8
0
 10
104.811
 20
-62.6646
 11
104.899
 21
-62.7247
  0
LINE
  8
0
 10
104.899
 20
-62.7247
 11
104.984
 21
-62.7901
  0
LINE
  8
0
 10
104.984
 20
-62.7901
 11
105.064
 21
-62.8607
  0
LINE
  8
0
 10
105.064
 20
-62.8607
 11
105.139
 21
-62.9363
  0
LINE
  8
0
 10
105.139
 20
-62.9363
 11
105.21
 21
-63.0164
  0
LINE
  8
0
 10
105.21
 20
-63.0164
 11
105.275
 21
-63.1008
  0
LINE
  8
0
 10
105.275
 20
-63.1008
 11
105.335
 21
-63.1891
  0
LINE
  8
0
 10
105.335
 20
-63.1891
 11
105.39
 21
-63.281
  0
LINE
  8
0
 10
105.39
 20
-63.281
 11
105.438
 21
-63.3762
  0
LINE
  8
0
 10
105.438
 20
-63.3762
 11
105.481
 21
-63.4742
  0
LINE
  8
0
 10
105.481
 20
-63.4742
 11
105.517
 21
-63.5747
  0
LINE
  8
0
 10
105.517
 20
-63.5747
 11
105.547
 21
-63.6772
  0
LINE
  8
0
 10
105.547
 20
-63.6772
 11
105.57
 21
-63.7814
  0
LINE
  8
0
 10
105.57
 20
-63.7814
 11
105.587
 21
-63.8869
  0
LINE
  8
0
 10
105.587
 20
-63.8869
 11
105.597
 21
-63.9933
  0
LINE
  8
0
 10
105.597
 20
-63.9933
 11
105.6
 21
-64.1
  0
LINE
  8
0
 10
105.6
 20
-64.1
 11
105.597
 21
-64.2067
  0
LINE
  8
0
 10
105.597
 20
-64.2067
 11
105.587
 21
-64.3131
  0
LINE
  8
0
 10
105.587
 20
-64.3131
 11
105.57
 21
-64.4185
  0
LINE
  8
0
 10
105.57
 20
-64.4185
 11
105.547
 21
-64.5228
  0
LINE
  8
0
 10
105.547
 20
-64.5228
 11
105.517
 21
-64.6253
  0
LINE
  8
0
 10
105.517
 20
-64.6253
 11
105.481
 21
-64.7258
  0
LINE
  8
0
 10
105.481
 20
-64.7258
 11
105.438
 21
-64.8238
  0
LINE
  8
0
 10
105.438
 20
-64.8238
 11
105.39
 21
-64.919
  0
LINE
  8
0
 10
105.39
 20
-64.919
 11
105.335
 21
-65.0109
  0
LINE
  8
0
 10
105.335
 20
-65.0109
 11
105.275
 21
-65.0992
  0
LINE
  8
0
 10
105.275
 20
-65.0992
 11
105.21
 21
-65.1836
  0
LINE
  8
0
 10
105.21
 20
-65.1836
 11
105.139
 21
-65.2637
  0
LINE
  8
0
 10
105.139
 20
-65.2637
 11
105.064
 21
-65.3392
  0
LINE
  8
0
 10
105.064
 20
-65.3392
 11
104.984
 21
-65.4099
  0
LINE
  8
0
 10
104.984
 20
-65.4099
 11
104.899
 21
-65.4753
  0
LINE
  8
0
 10
104.899
 20
-65.4753
 11
104.811
 21
-65.5354
  0
LINE
  8
0
 10
104.811
 20
-65.5354
 11
104.719
 21
-65.5897
  0
LINE
  8
0
 10
104.719
 20
-65.5897
 11
104.624
 21
-65.6382
  0
LINE
  8
0
 10
104.624
 20
-65.6382
 11
104.526
 21
-65.6806
  0
LINE
  8
0
 10
104.526
 20
-65.6806
 11
104.425
 21
-65.7168
  0
LINE
  8
0
 10
104.425
 20
-65.7168
 11
104.323
 21
-65.7466
  0
LINE
  8
0
 10
104.323
 20
-65.7466
 11
104.219
 21
-65.7699
  0
LINE
  8
0
 10
104.219
 20
-65.7699
 11
104.113
 21
-65.7866
  0
LINE
  8
0
 10
104.113
 20
-65.7866
 11
104.007
 21
-65.7966
  0
LINE
  8
0
 10
104.007
 20
-65.7966
 11
103.9
 21
-65.8
  0
LINE
  8
0
 10
103.9
 20
-65.8
 11
103.793
 21
-65.7966
  0
LINE
  8
0
 10
155.793
 20
-65.7966
 11
155.687
 21
-65.7866
  0
LINE
  8
0
 10
155.687
 20
-65.7866
 11
155.581
 21
-65.7699
  0
LINE
  8
0
 10
155.581
 20
-65.7699
 11
155.477
 21
-65.7466
  0
LINE
  8
0
 10
155.477
 20
-65.7466
 11
155.375
 21
-65.7168
  0
LINE
  8
0
 10
155.375
 20
-65.7168
 11
155.274
 21
-65.6806
  0
LINE
  8
0
 10
155.274
 20
-65.6806
 11
155.176
 21
-65.6382
  0
LINE
  8
0
 10
155.176
 20
-65.6382
 11
155.081
 21
-65.5897
  0
LINE
  8
0
 10
155.081
 20
-65.5897
 11
154.989
 21
-65.5354
  0
LINE
  8
0
 10
154.989
 20
-65.5354
 11
154.901
 21
-65.4753
  0
LINE
  8
0
 10
154.901
 20
-65.4753
 11
154.816
 21
-65.4099
  0
LINE
  8
0
 10
154.816
 20
-65.4099
 11
154.736
 21
-65.3392
  0
LINE
  8
0
 10
154.736
 20
-65.3392
 11
154.661
 21
-65.2637
  0
LINE
  8
0
 10
154.661
 20
-65.2637
 11
154.59
 21
-65.1836
  0
LINE
  8
0
 10
154.59
 20
-65.1836
 11
154.525
 21
-65.0992
  0
LINE
  8
0
 10
154.525
 20
-65.0992
 11
154.465
 21
-65.0109
  0
LINE
  8
0
 10
154.465
 20
-65.0109
 11
154.41
 21
-64.919
  0
LINE
  8
0
 10
154.41
 20
-64.919
 11
154.362
 21
-64.8238
  0
LINE
  8
0
 10
154.362
 20
-64.8238
 11
154.319
 21
-64.7258
  0
LINE
  8
0
 10
154.319
 20
-64.7258
 11
154.283
 21
-64.6253
  0
LINE
  8
0
 10
154.283
 20
-64.6253
 11
154.253
 21
-64.5228
  0
LINE
  8
0
 10
154.253
 20
-64.5228
 11
154.23
 21
-64.4185
  0
LINE
  8
0
 10
154.23
 20
-64.4185
 11
154.213
 21
-64.3131
  0
LINE
  8
0
 10
154.213
 20
-64.3131
 11
154.203
 21
-64.2067
  0
LINE
  8
0
 10
154.203
 20
-64.2067
 11
154.2
 21
-64.1
  0
LINE
  8
0
 10
154.2
 20
-64.1
 11
154.203
 21
-63.9933
  0
LINE
  8
0
 10
154.203
 20
-63.9933
 11
154.213
 21
-63.8869
  0
LINE
  8
0
 10
154.213
 20
-63.8869
 11
154.23
 21
-63.7814
  0
LINE
  8
0
 10
154.23
 20
-63.7814
 11
154.253
 21
-63.6772
  0
LINE
  8
0
 10
154.253
 20
-63.6772
 11
154.283
 21
-63.5747
  0
LINE
  8
0
 10
154.283
 20
-63.5747
 11
154.319
 21
-63.4742
  0
LINE
  8
0
 10
154.319
 20
-63.4742
 11
154.362
 21
-63.3762
  0
LINE
  8
0
 10
154.362
 20
-63.3762
 11
154.41
 21
-63.281
  0
LINE
  8
0
 10
154.41
 20
-63.281
 11
154.465
 21
-63.1891
  0
LINE
  8
0
 10
154.465
 20
-63.1891
 11
154.525
 21
-63.1008
  0
LINE
  8
0
 10
154.525
 20
-63.1008
 11
154.59
 21
-63.0164
  0
LINE
  8
0
 10
154.59
 20
-63.0164
 11
154.661
 21
-62.9363
  0
LINE
  8
0
 10
154.661
 20
-62.9363
 11
154.736
 21
-62.8607
  0
LINE
  8
0
 10
154.736
 20
-62.8607
 11
154.816
 21
-62.7901
  0
LINE
  8
0
 10
154.816
 20
-62.7901
 11
154.901
 21
-62.7247
  0
LINE
  8
0
 10
154.901
 20
-62.7247
 11
154.989
 21
-62.6646
  0
LINE
  8
0
 10
154.989
 20
-62.6646
 11
155.081
 21
-62.6103
  0
LINE
  8
0
 10
155.081
 20
-62.6103
 11
155.176
 21
-62.5618
  0
LINE
  8
0
 10
155.176
 20
-62.5618
 11
155.274
 21
-62.5194
  0
LINE
  8
0
 10
155.274
 20
-62.5194
 11
155.375
 21
-62.4832
  0
LINE
  8
0
 10
155.375
 20
-62.4832
 11
155.477
 21
-62.4534
  0
LINE
  8
0
 10
155.477
 20
-62.4534
 11
155.581
 21
-62.4301
  0
LINE
  8
0
 10
155.581
 20
-62.4301
 11
155.687
 21
-62.4134
  0
LINE
  8
0
 10
155.687
 20
-62.4134
 11
155.793
 21
-62.4034
  0
LINE
  8
0
 10
155.793
 20
-62.4034
 11
155.9
 21
-62.4
  0
LINE
  8
0
 10
155.9
 20
-62.4
 11
156.007
 21
-62.4034
  0
LINE
  8
0
 10
156.007
 20
-62.4034
 11
156.113
 21
-62.4134
  0
LINE
  8
0
 10
156.113
 20
-62.4134
 11
156.219
 21
-62.4301
  0
LINE
  8
0
 10
156.219
 20
-62.4301
 11
156.323
 21
-62.4534
  0
LINE
  8
0
 10
156.323
 20
-62.4534
 11
156.425
 21
-62.4832
  0
LINE
  8
0
 10
156.425
 20
-62.4832
 11
156.526
 21
-62.5194
  0
LINE
  8
0
 10
156.526
 20
-62.5194
 11
156.624
 21
-62.5618
  0
LINE
  8
0
 10
156.624
 20
-62.5618
 11
156.719
 21
-62.6103
  0
LINE
  8
0
 10
156.719
 20
-62.6103
 11
156.811
 21
-62.6646
  0
LINE
  8
0
 10
156.811
 20
-62.6646
 11
156.899
 21
-62.7247
  0
LINE
  8
0
 10
156.899
 20
-62.7247
 11
156.984
 21
-62.7901
  0
LINE
  8
0
 10
156.984
 20
-62.7901
 11
157.064
 21
-62.8607
  0
LINE
  8
0
 10
157.064
 20
-62.8607
 11
157.139
 21
-62.9363
  0
LINE
  8
0
 10
157.139
 20
-62.9363
 11
157.21
 21
-63.0164
  0
LINE
  8
0
 10
157.21
 20
-63.0164
 11
157.275
 21
-63.1008
  0
LINE
  8
0
 10
157.275
 20
-63.1008
 11
157.335
 21
-63.1891
  0
LINE
  8
0
 10
157.335
 20
-63.1891
 11
157.39
 21
-63.281
  0
LINE
  8
0
 10
157.39
 20
-63.281
 11
157.438
 21
-63.3762
  0
LINE
  8
0
 10
157.438
 20
-63.3762
 11
157.481
 21
-63.4742
  0
LINE
  8
0
 10
157.481
 20
-63.4742
 11
157.517
 21
-63.5747
  0
LINE
  8
0
 10
157.517
 20
-63.5747
 11
157.547
 21
-63.6772
  0
LINE
  8
0
 10
157.547
 20
-63.6772
 11
157.57
 21
-63.7814
  0
LINE
  8
0
 10
157.57
 20
-63.7814
 11
157.587
 21
-63.8869
  0
LINE
  8
0
 10
157.587
 20
-63.8869
 11
157.597
 21
-63.9933
  0
LINE
  8
0
 10
157.597
 20
-63.9933
 11
157.6
 21
-64.1
  0
LINE
  8
0
 10
157.6
 20
-64.1
 11
157.597
 21
-64.2067
  0
LINE
  8
0
 10
157.597
 20
-64.2067
 11
157.587
 21
-64.3131
  0
LINE
  8
0
 10
157.587
 20
-64.3131
 11
157.57
 21
-64.4185
  0
LINE
  8
0
 10
157.57
 20
-64.4185
 11
157.547
 21
-64.5228
  0
LINE
  8
0
 10
157.547
 20
-64.5228
 11
157.517
 21
-64.6253
  0
LINE
  8
0
 10
157.517
 20
-64.6253
 11
157.481
 21
-64.7258
  0
LINE
  8
0
 10
157.481
 20
-64.7258
 11
157.438
 21
-64.8238
  0
LINE
  8
0
 10
157.438
 20
-64.8238
 11
157.39
 21
-64.919
  0
LINE
  8
0
 10
157.39
 20
-64.919
 11
157.335
 21
-65.0109
  0
LINE
  8
0
 10
157.335
 20
-65.0109
 11
157.275
 21
-65.0992
  0
LINE
  8
0
 10
157.275
 20
-65.0992
 11
157.21
 21
-65.1836
  0
LINE
  8
0
 10
157.21
 20
-65.1836
 11
157.139
 21
-65.2637
  0
LINE
  8
0
 10
157.139
 20
-65.2637
 11
157.064
 21
-65.3392
  0
LINE
  8
0
 10
157.064
 20
-65.3392
 11
156.984
 21
-65.4099
  0
LINE
  8
0
 10
156.984
 20
-65.4099
 11
156.899
 21
-65.4753
  0
LINE
  8
0
 10
156.899
 20
-65.4753
 11
156.811
 21
-65.5354
  0
LINE
  8
0
 10
156.811
 20
-65.5354
 11
156.719
 21
-65.5897
  0
LINE
  8
0
 10
156.719
 20
-65.5897
 11
156.624
 21
-65.6382
  0
LINE
  8
0
 10
156.624
 20
-65.6382
 11
156.526
 21
-65.6806
  0
LINE
  8
0
 10
156.526
 20
-65.6806
 11
156.425
 21
-65.7168
  0
LINE
  8
0
 10
156.425
 20
-65.7168
 11
156.323
 21
-65.7466
  0
LINE
  8
0
 10
156.323
 20
-65.7466
 11
156.219
 21
-65.7699
  0
LINE
  8
0
 10
156.219
 20
-65.7699
 11
156.113
 21
-65.7866
  0
LINE
  8
0
 10
156.113
 20
-65.7866
 11
156.007
 21
-65.7966
  0
LINE
  8
0
 10
156.007
 20
-65.7966
 11
155.9
 21
-65.8
  0
LINE
  8
0
 10
155.9
 20
-65.8
 11
155.793
 21
-65.7966
  0
LINE
  8
0
 10
146.215
 20
-72.32
 11
146.215
 21
-69.38
  0
LINE
  8
0
 10
146.215
 20
-69.38
 11
154.385
 21
-69.38
  0
LINE
  8
0
 10
154.385
 20
-69.38
 11
154.385
 21
-72.32
  0
LINE
  8
0
 10
154.385
 20
-72.32
 11
146.215
 21
-72.32
  0
LINE
  8
0
 10
111.425
 20
-86.7464
 11
113.546
 21
-84.6251
  0
LINE
  8
0
 10
113.546
 20
-84.6251
 11
116.375
 21
-87.4536
  0
LINE
  8
0
 10
116.375
 20
-87.4536
 11
114.254
 21
-89.5749
  0
LINE
  8
0
 10
114.254
 20
-89.5749
 11
111.425
 21
-86.7464
  0
LINE
  8
0
 10
103.793
 20
-117.797
 11
103.687
 21
-117.787
  0
LINE
  8
0
 10
103.687
 20
-117.787
 11
103.581
 21
-117.77
  0
LINE
  8
0
 10
103.581
 20
-117.77
 11
103.477
 21
-117.747
  0
LINE
  8
0
 10
103.477
 20
-117.747
 11
103.375
 21
-117.717
  0
LINE
  8
0
 10
103.375
 20
-117.717
 11
103.274
 21
-117.681
  0
LINE
  8
0
 10
103.274
 20
-117.681
 11
103.176
 21
-117.638
  0
LINE
  8
0
 10
103.176
 20
-117.638
 11
103.081
 21
-117.59
  0
LINE
  8
0
 10
103.081
 20
-117.59
 11
102.989
 21
-117.535
  0
LINE
  8
0
 10
102.989
 20
-117.535
 11
102.901
 21
-117.475
  0
LINE
  8
0
 10
102.901
 20
-117.475
 11
102.816
 21
-117.41
  0
LINE
  8
0
 10
102.816
 20
-117.41
 11
102.736
 21
-117.339
  0
LINE
  8
0
 10
102.736
 20
-117.339
 11
102.661
 21
-117.264
  0
LINE
  8
0
 10
102.661
 20
-117.264
 11
102.59
 21
-117.184
  0
LINE
  8
0
 10
102.59
 20
-117.184
 11
102.525
 21
-117.099
  0
LINE
  8
0
 10
102.525
 20
-117.099
 11
102.465
 21
-117.011
  0
LINE
  8
0
 10
102.465
 20
-117.011
 11
102.41
 21
-116.919
  0
LINE
  8
0
 10
102.41
 20
-116.919
 11
102.362
 21
-116.824
  0
LINE
  8
0
 10
102.362
 20
-116.824
 11
102.319
 21
-116.726
  0
LINE
  8
0
 10
102.319
 20
-116.726
 11
102.283
 21
-116.625
  0
LINE
  8
0
 10
102.283
 20
-116.625
 11
102.253
 21
-116.523
  0
LINE
  8
0
 10
102.253
 20
-116.523
 11
102.23
 21
-116.419
  0
LINE
  8
0
 10
102.23
 20
-116.419
 11
102.213
 21
-116.313
  0
LINE
  8
0
 10
102.213
 20
-116.313
 11
102.203
 21
-116.207
  0
LINE
  8
0
 10
102.203
 20
-116.207
 11
102.2
 21
-116.1
  0
LINE
  8
0
 10
102.2
 20
-116.1
 11
102.203
 21
-115.993
  0
LINE
  8
0
 10
102.203
 20
-115.993
 11
102.213
 21
-115.887
  0
LINE
  8
0
 10
102.213
 20
-115.887
 11
102.23
 21
-115.781
  0
LINE
  8
0
 10
102.23
 20
-115.781
 11
102.253
 21
-115.677
  0
LINE
  8
0
 10
102.253
 20
-115.677
 11
102.283
 21
-115.575
  0
LINE
  8
0
 10
102.283
 20
-115.575
 11
102.319
 21
-115.474
  0
LINE
  8
0
 10
102.319
 20
-115.474
 11
102.362
 21
-115.376
  0
LINE
  8
0
 10
102.362
 20
-115.376
 11
102.41
 21
-115.281
  0
LINE
  8
0
 10
102.41
 20
-115.281
 11
102.465
 21
-115.189
  0
LINE
  8
0
 10
102.465
 20
-115.189
 11
102.525
 21
-115.101
  0
LINE
  8
0
 10
102.525
 20
-115.101
 11
102.59
 21
-115.016
  0
LINE
  8
0
 10
102.59
 20
-115.016
 11
102.661
 21
-114.936
  0
LINE
  8
0
 10
102.661
 20
-114.936
 11
102.736
 21
-114.861
  0
LINE
  8
0
 10
102.736
 20
-114.861
 11
102.816
 21
-114.79
  0
LINE
  8
0
 10
102.816
 20
-114.79
 11
102.901
 21
-114.725
  0
LINE
  8
0
 10
102.901
 20
-114.725
 11
102.989
 21
-114.665
  0
LINE
  8
0
 10
102.989
 20
-114.665
 11
103.081
 21
-114.61
  0
LINE
  8
0
 10
103.081
 20
-114.61
 11
103.176
 21
-114.562
  0
LINE
  8
0
 10
103.176
 20
-114.562
 11
103.274
 21
-114.519
  0
LINE
  8
0
 10
103.274
 20
-114.519
 11
103.375
 21
-114.483
  0
LINE
  8
0
 10
103.375
 20
-114.483
 11
103.477
 21
-114.453
  0
LINE
  8
0
 10
103.477
 20
-114.453
 11
103.581
 21
-114.43
  0
LINE
  8
0
 10
103.581
 20
-114.43
 11
103.687
 21
-114.413
  0
LINE
  8
0
 10
103.687
 20
-114.413
 11
103.793
 21
-114.403
  0
LINE
  8
0
 10
103.793
 20
-114.403
 11
103.9
 21
-114.4
  0
LINE
  8
0
 10
103.9
 20
-114.4
 11
104.007
 21
-114.403
  0
LINE
  8
0
 10
104.007
 20
-114.403
 11
104.113
 21
-114.413
  0
LINE
  8
0
 10
104.113
 20
-114.413
 11
104.219
 21
-114.43
  0
LINE
  8
0
 10
104.219
 20
-114.43
 11
104.323
 21
-114.453
  0
LINE
  8
0
 10
104.323
 20
-114.453
 11
104.425
 21
-114.483
  0
LINE
  8
0
 10
104.425
 20
-114.483
 11
104.526
 21
-114.519
  0
LINE
  8
0
 10
104.526
 20
-114.519
 11
104.624
 21
-114.562
  0
LINE
  8
0
 10
104.624
 20
-114.562
 11
104.719
 21
-114.61
  0
LINE
  8
0
 10
104.719
 20
-114.61
 11
104.811
 21
-114.665
  0
LINE
  8
0
 10
104.811
 20
-114.665
 11
104.899
 21
-114.725
  0
LINE
  8
0
 10
104.899
 20
-114.725
 11
104.984
 21
-114.79
  0
LINE
  8
0
 10
104.984
 20
-114.79
 11
105.064
 21
-114.861
  0
LINE
  8
0
 10
105.064
 20
-114.861
 11
105.139
 21
-114.936
  0
LINE
  8
0
 10
105.139
 20
-114.936
 11
105.21
 21
-115.016
  0
LINE
  8
0
 10
105.21
 20
-115.016
 11
105.275
 21
-115.101
  0
LINE
  8
0
 10
105.275
 20
-115.101
 11
105.335
 21
-115.189
  0
LINE
  8
0
 10
105.335
 20
-115.189
 11
105.39
 21
-115.281
  0
LINE
  8
0
 10
105.39
 20
-115.281
 11
105.438
 21
-115.376
  0
LINE
  8
0
 10
105.438
 20
-115.376
 11
105.481
 21
-115.474
  0
LINE
  8
0
 10
105.481
 20
-115.474
 11
105.517
 21
-115.575
  0
LINE
  8
0
 10
105.517
 20
-115.575
 11
105.547
 21
-115.677
  0
LINE
  8
0
 10
105.547
 20
-115.677
 11
105.57
 21
-115.781
  0
LINE
  8
0
 10
105.57
 20
-115.781
 11
105.587
 21
-115.887
  0
LINE
  8
0
 10
105.587
 20
-115.887
 11
105.597
 21
-115.993
  0
LINE
  8
0
 10
105.597
 20
-115.993
 11
105.6
 21
-116.1
  0
LINE
  8
0
 10
105.6
 20
-116.1
 11
105.597
 21
-116.207
  0
LINE
  8
0
 10
105.597
 20
-116.207
 11
105.587
 21
-116.313
  0
LINE
  8
0
 10
105.587
 20
-116.313
 11
105.57
 21
-116.419
  0
LINE
  8
0
 10
105.57
 20
-116.419
 11
105.547
 21
-116.523
  0
LINE
  8
0
 10
105.547
 20
-116.523
 11
105.517
 21
-116.625
  0
LINE
  8
0
 10
105.517
 20
-116.625
 11
105.481
 21
-116.726
  0
LINE
  8
0
 10
105.481
 20
-116.726
 11
105.438
 21
-116.824
  0
LINE
  8
0
 10
105.438
 20
-116.824
 11
105.39
 21
-116.919
  0
LINE
  8
0
 10
105.39
 20
-116.919
 11
105.335
 21
-117.011
  0
LINE
  8
0
 10
105.335
 20
-117.011
 11
105.275
 21
-117.099
  0
LINE
  8
0
 10
105.275
 20
-117.099
 11
105.21
 21
-117.184
  0
LINE
  8
0
 10
105.21
 20
-117.184
 11
105.139
 21
-117.264
  0
LINE
  8
0
 10
105.139
 20
-117.264
 11
105.064
 21
-117.339
  0
LINE
  8
0
 10
105.064
 20
-117.339
 11
104.984
 21
-117.41
  0
LINE
  8
0
 10
104.984
 20
-117.41
 11
104.899
 21
-117.475
  0
LINE
  8
0
 10
104.899
 20
-117.475
 11
104.811
 21
-117.535
  0
LINE
  8
0
 10
104.811
 20
-117.535
 11
104.719
 21
-117.59
  0
LINE
  8
0
 10
104.719
 20
-117.59
 11
104.624
 21
-117.638
  0
LINE
  8
0
 10
104.624
 20
-117.638
 11
104.526
 21
-117.681
  0
LINE
  8
0
 10
104.526
 20
-117.681
 11
104.425
 21
-117.717
  0
LINE
  8
0
 10
104.425
 20
-117.717
 11
104.323
 21
-117.747
  0
LINE
  8
0
 10
104.323
 20
-117.747
 11
104.219
 21
-117.77
  0
LINE
  8
0
 10
104.219
 20
-117.77
 11
104.113
 21
-117.787
  0
LINE
  8
0
 10
104.113
 20
-117.787
 11
104.007
 21
-117.797
  0
LINE
  8
0
 10
104.007
 20
-117.797
 11
103.9
 21
-117.8
  0
LINE
  8
0
 10
103.9
 20
-117.8
 11
103.793
 21
-117.797
  0
LINE
  8
0
 10
155.793
 20
-117.797
 11
155.687
 21
-117.787
  0
LINE
  8
0
 10
155.687
 20
-117.787
 11
155.581
 21
-117.77
  0
LINE
  8
0
 10
155.581
 20
-117.77
 11
155.477
 21
-117.747
  0
LINE
  8
0
 10
155.477
 20
-117.747
 11
155.375
 21
-117.717
  0
LINE
  8
0
 10
155.375
 20
-117.717
 11
155.274
 21
-117.681
  0
LINE
  8
0
 10
155.274
 20
-117.681
 11
155.176
 21
-117.638
  0
LINE
  8
0
 10
155.176
 20
-117.638
 11
155.081
 21
-117.59
  0
LINE
  8
0
 10
155.081
 20
-117.59
 11
154.989
 21
-117.535
  0
LINE
  8
0
 10
154.989
 20
-117.535
 11
154.901
 21
-117.475
  0
LINE
  8
0
 10
154.901
 20
-117.475
 11
154.816
 21
-117.41
  0
LINE
  8
0
 10
154.816
 20
-117.41
 11
154.736
 21
-117.339
  0
LINE
  8
0
 10
154.736
 20
-117.339
 11
154.661
 21
-117.264
  0
LINE
  8
0
 10
154.661
 20
-117.264
 11
154.59
 21
-117.184
  0
LINE
  8
0
 10
154.59
 20
-117.184
 11
154.525
 21
-117.099
  0
LINE
  8
0
 10
154.525
 20
-117.099
 11
154.465
 21
-117.011
  0
LINE
  8
0
 10
154.465
 20
-117.011
 11
154.41
 21
-116.919
  0
LINE
  8
0
 10
154.41
 20
-116.919
 11
154.362
 21
-116.824
  0
LINE
  8
0
 10
154.362
 20
-116.824
 11
154.319
 21
-116.726
  0
LINE
  8
0
 10
154.319
 20
-116.726
 11
154.283
 21
-116.625
  0
LINE
  8
0
 10
154.283
 20
-116.625
 11
154.253
 21
-116.523
  0
LINE
  8
0
 10
154.253
 20
-116.523
 11
154.23
 21
-116.419
  0
LINE
  8
0
 10
154.23
 20
-116.419
 11
154.213
 21
-116.313
  0
LINE
  8
0
 10
154.213
 20
-116.313
 11
154.203
 21
-116.207
  0
LINE
  8
0
 10
154.203
 20
-116.207
 11
154.2
 21
-116.1
  0
LINE
  8
0
 10
154.2
 20
-116.1
 11
154.203
 21
-115.993
  0
LINE
  8
0
 10
154.203
 20
-115.993
 11
154.213
 21
-115.887
  0
LINE
  8
0
 10
154.213
 20
-115.887
 11
154.23
 21
-115.781
  0
LINE
  8
0
 10
154.23
 20
-115.781
 11
154.253
 21
-115.677
  0
LINE
  8
0
 10
154.253
 20
-115.677
 11
154.283
 21
-115.575
  0
LINE
  8
0
 10
154.283
 20
-115.575
 11
154.319
 21
-115.474
  0
LINE
  8
0
 10
154.319
 20
-115.474
 11
154.362
 21
-115.376
  0
LINE
  8
0
 10
154.362
 20
-115.376
 11
154.41
 21
-115.281
  0
LINE
  8
0
 10
154.41
 20
-115.281
 11
154.465
 21
-115.189
  0
LINE
  8
0
 10
154.465
 20
-115.189
 11
154.525
 21
-115.101
  0
LINE
  8
0
 10
154.525
 20
-115.101
 11
154.59
 21
-115.016
  0
LINE
  8
0
 10
154.59
 20
-115.016
 11
154.661
 21
-114.936
  0
LINE
  8
0
 10
154.661
 20
-114.936
 11
154.736
 21
-114.861
  0
LINE
  8
0
 10
154.736
 20
-114.861
 11
154.816
 21
-114.79
  0
LINE
  8
0
 10
154.816
 20
-114.79
 11
154.901
 21
-114.725
  0
LINE
  8
0
 10
154.901
 20
-114.725
 11
154.989
 21
-114.665
  0
LINE
  8
0
 10
154.989
 20
-114.665
 11
155.081
 21
-114.61
  0
LINE
  8
0
 10
155.081
 20
-114.61
 11
155.176
 21
-114.562
  0
LINE
  8
0
 10
155.176
 20
-114.562
 11
155.274
 21
-114.519
  0
LINE
  8
0
 10
155.274
 20
-114.519
 11
155.375
 21
-114.483
  0
LINE
  8
0
 10
155.375
 20
-114.483
 11
155.477
 21
-114.453
  0
LINE
  8
0
 10
155.477
 20
-114.453
 11
155.581
 21
-114.43
  0
LINE
  8
0
 10
155.581
 20
-114.43
 11
155.687
 21
-114.413
  0
LINE
  8
0
 10
155.687
 20
-114.413
 11
155.793
 21
-114.403
  0
LINE
  8
0
 10
155.793
 20
-114.403
 11
155.9
 21
-114.4
  0
LINE
  8
0
 10
155.9
 20
-114.4
 11
156.007
 21
-114.403
  0
LINE
  8
0
 10
156.007
 20
-114.403
 11
156.113
 21
-114.413
  0
LINE
  8
0
 10
156.113
 20
-114.413
 11
156.219
 21
-114.43
  0
LINE
  8
0
 10
156.219
 20
-114.43
 11
156.323
 21
-114.453
  0
LINE
  8
0
 10
156.323
 20
-114.453
 11
156.425
 21
-114.483
  0
LINE
  8
0
 10
156.425
 20
-114.483
 11
156.526
 21
-114.519
  0
LINE
  8
0
 10
156.526
 20
-114.519
 11
156.624
 21
-114.562
  0
LINE
  8
0
 10
156.624
 20
-114.562
 11
156.719
 21
-114.61
  0
LINE
  8
0
 10
156.719
 20
-114.61
 11
156.811
 21
-114.665
  0
LINE
  8
0
 10
156.811
 20
-114.665
 11
156.899
 21
-114.725
  0
LINE
  8
0
 10
156.899
 20
-114.725
 11
156.984
 21
-114.79
  0
LINE
  8
0
 10
156.984
 20
-114.79
 11
157.064
 21
-114.861
  0
LINE
  8
0
 10
157.064
 20
-114.861
 11
157.139
 21
-114.936
  0
LINE
  8
0
 10
157.139
 20
-114.936
 11
157.21
 21
-115.016
  0
LINE
  8
0
 10
157.21
 20
-115.016
 11
157.275
 21
-115.101
  0
LINE
  8
0
 10
157.275
 20
-115.101
 11
157.335
 21
-115.189
  0
LINE
  8
0
 10
157.335
 20
-115.189
 11
157.39
 21
-115.281
  0
LINE
  8
0
 10
157.39
 20
-115.281
 11
157.438
 21
-115.376
  0
LINE
  8
0
 10
157.438
 20
-115.376
 11
157.481
 21
-115.474
  0
LINE
  8
0
 10
157.481
 20
-115.474
 11
157.517
 21
-115.575
  0
LINE
  8
0
 10
157.517
 20
-115.575
 11
157.547
 21
-115.677
  0
LINE
  8
0
 10
157.547
 20
-115.677
 11
157.57
 21
-115.781
  0
LINE
  8
0
 10
157.57
 20
-115.781
 11
157.587
 21
-115.887
  0
LINE
  8
0
 10
157.587
 20
-115.887
 11
157.597
 21
-115.993
  0
LINE
  8
0
 10
157.597
 20
-115.993
 11
157.6
 21
-116.1
  0
LINE
  8
0
 10
157.6
 20
-116.1
 11
157.597
 21
-116.207
  0
LINE
  8
0
 10
157.597
 20
-116.207
 11
157.587
 21
-116.313
  0
LINE
  8
0
 10
157.587
 20
-116.313
 11
157.57
 21
-116.419
  0
LINE
  8
0
 10
157.57
 20
-116.419
 11
157.547
 21
-116.523
  0
LINE
  8
0
 10
157.547
 20
-116.523
 11
157.517
 21
-116.625
  0
LINE
  8
0
 10
157.517
 20
-116.625
 11
157.481
 21
-116.726
  0
LINE
  8
0
 10
157.481
 20
-116.726
 11
157.438
 21
-116.824
  0
LINE
  8
0
 10
157.438
 20
-116.824
 11
157.39
 21
-116.919
  0
LINE
  8
0
 10
157.39
 20
-116.919
 11
157.335
 21
-117.011
  0
LINE
  8
0
 10
157.335
 20
-117.011
 11
157.275
 21
-117.099
  0
LINE
  8
0
 10
157.275
 20
-117.099
 11
157.21
 21
-117.184
  0
LINE
  8
0
 10
157.21
 20
-117.184
 11
157.139
 21
-117.264
  0
LINE
  8
0
 10
157.139
 20
-117.264
 11
157.064
 21
-117.339
  0
LINE
  8
0
 10
157.064
 20
-117.339
 11
156.984
 21
-117.41
  0
LINE
  8
0
 10
156.984
 20
-117.41
 11
156.899
 21
-117.475
  0
LINE
  8
0
 10
156.899
 20
-117.475
 11
156.811
 21
-117.535
  0
LINE
  8
0
 10
156.811
 20
-117.535
 11
156.719
 21
-117.59
  0
LINE
  8
0
 10
156.719
 20
-117.59
 11
156.624
 21
-117.638
  0
LINE
  8
0
 10
156.624
 20
-117.638
 11
156.526
 21
-117.681
  0
LINE
  8
0
 10
156.526
 20
-117.681
 11
156.425
 21
-117.717
  0
LINE
  8
0
 10
156.425
 20
-117.717
 11
156.323
 21
-117.747
  0
LINE
  8
0
 10
156.323
 20
-117.747
 11
156.219
 21
-117.77
  0
LINE
  8
0
 10
156.219
 20
-117.77
 11
156.113
 21
-117.787
  0
LINE
  8
0
 10
156.113
 20
-117.787
 11
156.007
 21
-117.797
  0
LINE
  8
0
 10
156.007
 20
-117.797
 11
155.9
 21
-117.8
  0
LINE
  8
0
 10
155.9
 20
-117.8
 11
155.793
 21
-117.797
  0
LINE
  8
0
 10
99.8
 20
-126.843
 11
99.8693
 21
-126.836
  0
LINE
  8
0
 10
99.8693
 20
-126.836
 11
99.9779
 21
-126.819
  0
LINE
  8
0
 10
99.9779
 20
-126.819
 11
100.085
 21
-126.795
  0
LINE
  8
0
 10
100.085
 20
-126.795
 11
100.191
 21
-126.764
  0
LINE
  8
0
 10
100.191
 20
-126.764
 11
100.294
 21
-126.727
  0
LINE
  8
0
 10
100.294
 20
-126.727
 11
100.395
 21
-126.683
  0
LINE
  8
0
 10
100.395
 20
-126.683
 11
100.493
 21
-126.634
  0
LINE
  8
0
 10
100.493
 20
-126.634
 11
100.588
 21
-126.578
  0
LINE
  8
0
 10
100.588
 20
-126.578
 11
100.679
 21
-126.516
  0
LINE
  8
0
 10
100.679
 20
-126.516
 11
100.765
 21
-126.448
  0
LINE
  8
0
 10
100.765
 20
-126.448
 11
100.848
 21
-126.376
  0
LINE
  8
0
 10
100.848
 20
-126.376
 11
100.926
 21
-126.298
  0
LINE
  8
0
 10
100.926
 20
-126.298
 11
100.998
 21
-126.215
  0
LINE
  8
0
 10
100.998
 20
-126.215
 11
101.066
 21
-126.129
  0
LINE
  8
0
 10
101.066
 20
-126.129
 11
101.128
 21
-126.038
  0
LINE
  8
0
 10
101.128
 20
-126.038
 11
101.184
 21
-125.943
  0
LINE
  8
0
 10
101.184
 20
-125.943
 11
101.233
 21
-125.845
  0
LINE
  8
0
 10
101.233
 20
-125.845
 11
101.277
 21
-125.744
  0
LINE
  8
0
 10
101.277
 20
-125.744
 11
101.314
 21
-125.641
  0
LINE
  8
0
 10
101.314
 20
-125.641
 11
101.345
 21
-125.535
  0
LINE
  8
0
 10
101.345
 20
-125.535
 11
101.369
 21
-125.428
  0
LINE
  8
0
 10
101.369
 20
-125.428
 11
101.386
 21
-125.319
  0
LINE
  8
0
 10
101.386
 20
-125.319
 11
101.393
 21
-125.25
  0
LINE
  8
0
 10
101.393
 20
-125.25
 11
101.4
 21
-125.25
  0
LINE
  8
0
 10
101.4
 20
-125.25
 11
101.4
 21
-124.95
  0
LINE
  8
0
 10
101.4
 20
-124.95
 11
101.393
 21
-124.95
  0
LINE
  8
0
 10
101.393
 20
-124.95
 11
101.386
 21
-124.881
  0
LINE
  8
0
 10
101.386
 20
-124.881
 11
101.369
 21
-124.772
  0
LINE
  8
0
 10
101.369
 20
-124.772
 11
101.345
 21
-124.665
  0
LINE
  8
0
 10
101.345
 20
-124.665
 11
101.314
 21
-124.559
  0
LINE
  8
0
 10
101.314
 20
-124.559
 11
101.277
 21
-124.456
  0
LINE
  8
0
 10
101.277
 20
-124.456
 11
101.233
 21
-124.355
  0
LINE
  8
0
 10
101.233
 20
-124.355
 11
101.184
 21
-124.257
  0
LINE
  8
0
 10
101.184
 20
-124.257
 11
101.128
 21
-124.162
  0
LINE
  8
0
 10
101.128
 20
-124.162
 11
101.066
 21
-124.071
  0
LINE
  8
0
 10
101.066
 20
-124.071
 11
100.998
 21
-123.984
  0
LINE
  8
0
 10
100.998
 20
-123.984
 11
100.926
 21
-123.902
  0
LINE
  8
0
 10
100.926
 20
-123.902
 11
100.848
 21
-123.824
  0
LINE
  8
0
 10
100.848
 20
-123.824
 11
100.765
 21
-123.752
  0
LINE
  8
0
 10
100.765
 20
-123.752
 11
100.679
 21
-123.684
  0
LINE
  8
0
 10
100.679
 20
-123.684
 11
100.588
 21
-123.622
  0
LINE
  8
0
 10
100.588
 20
-123.622
 11
100.493
 21
-123.566
  0
LINE
  8
0
 10
100.493
 20
-123.566
 11
100.395
 21
-123.517
  0
LINE
  8
0
 10
100.395
 20
-123.517
 11
100.294
 21
-123.473
  0
LINE
  8
0
 10
100.294
 20
-123.473
 11
100.191
 21
-123.436
  0
LINE
  8
0
 10
100.191
 20
-123.436
 11
100.085
 21
-123.405
  0
LINE
  8
0
 10
100.085
 20
-123.405
 11
99.9779
 21
-123.381
  0
LINE
  8
0
 10
99.9779
 20
-123.381
 11
99.8693
 21
-123.364
  0
LINE
  8
0
 10
99.8693
 20
-123.364
 11
99.8
 21
-123.357
  0
LINE
  8
0
 10
99.8
 20
-123.357
 11
99.8
 21
-123.35
  0
LINE
  8
0
 10
99.8
 20
-123.35
 11
99.5
 21
-123.35
  0
LINE
  8
0
 10
99.5
 20
-123.35
 11
99.5
 21
-123.357
  0
LINE
  8
0
 10
99.5
 20
-123.357
 11
99.4307
 21
-123.364
  0
LINE
  8
0
 10
99.4307
 20
-123.364
 11
99.3221
 21
-123.381
  0
LINE
  8
0
 10
99.3221
 20
-123.381
 11
99.2148
 21
-123.405
  0
LINE
  8
0
 10
99.2148
 20
-123.405
 11
99.1092
 21
-123.436
  0
LINE
  8
0
 10
99.1092
 20
-123.436
 11
99.0058
 21
-123.473
  0
LINE
  8
0
 10
99.0058
 20
-123.473
 11
98.9049
 21
-123.517
  0
LINE
  8
0
 10
98.9049
 20
-123.517
 11
98.8069
 21
-123.566
  0
LINE
  8
0
 10
98.8069
 20
-123.566
 11
98.7123
 21
-123.622
  0
LINE
  8
0
 10
98.7123
 20
-123.622
 11
98.6214
 21
-123.684
  0
LINE
  8
0
 10
98.6214
 20
-123.684
 11
98.5345
 21
-123.752
  0
LINE
  8
0
 10
98.5345
 20
-123.752
 11
98.452
 21
-123.824
  0
LINE
  8
0
 10
98.452
 20
-123.824
 11
98.3743
 21
-123.902
  0
LINE
  8
0
 10
98.3743
 20
-123.902
 11
98.3016
 21
-123.984
  0
LINE
  8
0
 10
98.3016
 20
-123.984
 11
98.2342
 21
-124.071
  0
LINE
  8
0
 10
98.2342
 20
-124.071
 11
98.1724
 21
-124.162
  0
LINE
  8
0
 10
98.1724
 20
-124.162
 11
98.1165
 21
-124.257
  0
LINE
  8
0
 10
98.1165
 20
-124.257
 11
98.0665
 21
-124.355
  0
LINE
  8
0
 10
98.0665
 20
-124.355
 11
98.0229
 21
-124.456
  0
LINE
  8
0
 10
98.0229
 20
-124.456
 11
97.9856
 21
-124.559
  0
LINE
  8
0
 10
97.9856
 20
-124.559
 11
97.955
 21
-124.665
  0
LINE
  8
0
 10
97.955
 20
-124.665
 11
97.931
 21
-124.772
  0
LINE
  8
0
 10
97.931
 20
-124.772
 11
97.9138
 21
-124.881
  0
LINE
  8
0
 10
97.9138
 20
-124.881
 11
97.9072
 21
-124.95
  0
LINE
  8
0
 10
97.9072
 20
-124.95
 11
97.9
 21
-124.95
  0
LINE
  8
0
 10
97.9
 20
-124.95
 11
97.9
 21
-125.25
  0
LINE
  8
0
 10
97.9
 20
-125.25
 11
97.9072
 21
-125.25
  0
LINE
  8
0
 10
97.9072
 20
-125.25
 11
97.9138
 21
-125.319
  0
LINE
  8
0
 10
97.9138
 20
-125.319
 11
97.931
 21
-125.428
  0
LINE
  8
0
 10
97.931
 20
-125.428
 11
97.955
 21
-125.535
  0
LINE
  8
0
 10
97.955
 20
-125.535
 11
97.9856
 21
-125.641
  0
LINE
  8
0
 10
97.9856
 20
-125.641
 11
98.0229
 21
-125.744
  0
LINE
  8
0
 10
98.0229
 20
-125.744
 11
98.0665
 21
-125.845
  0
LINE
  8
0
 10
98.0665
 20
-125.845
 11
98.1165
 21
-125.943
  0
LINE
  8
0
 10
98.1165
 20
-125.943
 11
98.1724
 21
-126.038
  0
LINE
  8
0
 10
98.1724
 20
-126.038
 11
98.2342
 21
-126.129
  0
LINE
  8
0
 10
98.2342
 20
-126.129
 11
98.3016
 21
-126.215
  0
LINE
  8
0
 10
98.3016
 20
-126.215
 11
98.3743
 21
-126.298
  0
LINE
  8
0
 10
98.3743
 20
-126.298
 11
98.452
 21
-126.376
  0
LINE
  8
0
 10
98.452
 20
-126.376
 11
98.5345
 21
-126.448
  0
LINE
  8
0
 10
98.5345
 20
-126.448
 11
98.6214
 21
-126.516
  0
LINE
  8
0
 10
98.6214
 20
-126.516
 11
98.7123
 21
-126.578
  0
LINE
  8
0
 10
98.7123
 20
-126.578
 11
98.8069
 21
-126.634
  0
LINE
  8
0
 10
98.8069
 20
-126.634
 11
98.9049
 21
-126.683
  0
LINE
  8
0
 10
98.9049
 20
-126.683
 11
99.0058
 21
-126.727
  0
LINE
  8
0
 10
99.0058
 20
-126.727
 11
99.1092
 21
-126.764
  0
LINE
  8
0
 10
99.1092
 20
-126.764
 11
99.2148
 21
-126.795
  0
LINE
  8
0
 10
99.2148
 20
-126.795
 11
99.3221
 21
-126.819
  0
LINE
  8
0
 10
99.3221
 20
-126.819
 11
99.4307
 21
-126.836
  0
LINE
  8
0
 10
99.4307
 20
-126.836
 11
99.5
 21
-126.843
  0
LINE
  8
0
 10
99.5
 20
-126.843
 11
99.5
 21
-126.85
  0
LINE
  8
0
 10
99.5
 20
-126.85
 11
99.8
 21
-126.85
  0
LINE
  8
0
 10
99.8
 20
-126.85
 11
99.8
 21
-126.843
  0
LINE
  8
0
 10
99.8
 20
-124.95
 11
99.8
 21
-123.658
  0
LINE
  8
0
 10
99.8
 20
-123.658
 11
99.8317
 21
-123.661
  0
LINE
  8
0
 10
99.8317
 20
-123.661
 11
99.9217
 21
-123.676
  0
LINE
  8
0
 10
99.9217
 20
-123.676
 11
100.011
 21
-123.696
  0
LINE
  8
0
 10
100.011
 20
-123.696
 11
100.098
 21
-123.721
  0
LINE
  8
0
 10
100.098
 20
-123.721
 11
100.184
 21
-123.752
  0
LINE
  8
0
 10
100.184
 20
-123.752
 11
100.267
 21
-123.788
  0
LINE
  8
0
 10
100.267
 20
-123.788
 11
100.349
 21
-123.829
  0
LINE
  8
0
 10
100.349
 20
-123.829
 11
100.427
 21
-123.876
  0
LINE
  8
0
 10
100.427
 20
-123.876
 11
100.502
 21
-123.927
  0
LINE
  8
0
 10
100.502
 20
-123.927
 11
100.574
 21
-123.983
  0
LINE
  8
0
 10
100.574
 20
-123.983
 11
100.643
 21
-124.043
  0
LINE
  8
0
 10
100.643
 20
-124.043
 11
100.707
 21
-124.107
  0
LINE
  8
0
 10
100.707
 20
-124.107
 11
100.767
 21
-124.176
  0
LINE
  8
0
 10
100.767
 20
-124.176
 11
100.823
 21
-124.248
  0
LINE
  8
0
 10
100.823
 20
-124.248
 11
100.874
 21
-124.323
  0
LINE
  8
0
 10
100.874
 20
-124.323
 11
100.921
 21
-124.401
  0
LINE
  8
0
 10
100.921
 20
-124.401
 11
100.962
 21
-124.483
  0
LINE
  8
0
 10
100.962
 20
-124.483
 11
100.998
 21
-124.566
  0
LINE
  8
0
 10
100.998
 20
-124.566
 11
101.029
 21
-124.652
  0
LINE
  8
0
 10
101.029
 20
-124.652
 11
101.054
 21
-124.739
  0
LINE
  8
0
 10
101.054
 20
-124.739
 11
101.074
 21
-124.828
  0
LINE
  8
0
 10
101.074
 20
-124.828
 11
101.089
 21
-124.918
  0
LINE
  8
0
 10
101.089
 20
-124.918
 11
101.092
 21
-124.95
  0
LINE
  8
0
 10
101.092
 20
-124.95
 11
99.8
 21
-124.95
  0
LINE
  8
0
 10
98.2084
 20
-124.95
 11
98.2114
 21
-124.918
  0
LINE
  8
0
 10
98.2114
 20
-124.918
 11
98.2257
 21
-124.828
  0
LINE
  8
0
 10
98.2257
 20
-124.828
 11
98.2455
 21
-124.739
  0
LINE
  8
0
 10
98.2455
 20
-124.739
 11
98.271
 21
-124.652
  0
LINE
  8
0
 10
98.271
 20
-124.652
 11
98.3018
 21
-124.566
  0
LINE
  8
0
 10
98.3018
 20
-124.566
 11
98.338
 21
-124.483
  0
LINE
  8
0
 10
98.338
 20
-124.483
 11
98.3793
 21
-124.401
  0
LINE
  8
0
 10
98.3793
 20
-124.401
 11
98.4257
 21
-124.323
  0
LINE
  8
0
 10
98.4257
 20
-124.323
 11
98.4769
 21
-124.248
  0
LINE
  8
0
 10
98.4769
 20
-124.248
 11
98.5327
 21
-124.176
  0
LINE
  8
0
 10
98.5327
 20
-124.176
 11
98.593
 21
-124.107
  0
LINE
  8
0
 10
98.593
 20
-124.107
 11
98.6574
 21
-124.043
  0
LINE
  8
0
 10
98.6574
 20
-124.043
 11
98.7257
 21
-123.983
  0
LINE
  8
0
 10
98.7257
 20
-123.983
 11
98.7977
 21
-123.927
  0
LINE
  8
0
 10
98.7977
 20
-123.927
 11
98.873
 21
-123.876
  0
LINE
  8
0
 10
98.873
 20
-123.876
 11
98.9514
 21
-123.829
  0
LINE
  8
0
 10
98.9514
 20
-123.829
 11
99.0326
 21
-123.788
  0
LINE
  8
0
 10
99.0326
 20
-123.788
 11
99.1162
 21
-123.752
  0
LINE
  8
0
 10
99.1162
 20
-123.752
 11
99.2019
 21
-123.721
  0
LINE
  8
0
 10
99.2019
 20
-123.721
 11
99.2894
 21
-123.696
  0
LINE
  8
0
 10
99.2894
 20
-123.696
 11
99.3783
 21
-123.676
  0
LINE
  8
0
 10
99.3783
 20
-123.676
 11
99.4683
 21
-123.661
  0
LINE
  8
0
 10
99.4683
 20
-123.661
 11
99.5
 21
-123.658
  0
LINE
  8
0
 10
99.5
 20
-123.658
 11
99.5
 21
-124.95
  0
LINE
  8
0
 10
99.5
 20
-124.95
 11
98.2084
 21
-124.95
  0
LINE
  8
0
 10
99.8
 20
-125.25
 11
101.092
 21
-125.25
  0
LINE
  8
0
 10
101.092
 20
-125.25
 11
101.089
 21
-125.282
  0
LINE
  8
0
 10
101.089
 20
-125.282
 11
101.074
 21
-125.372
  0
LINE
  8
0
 10
101.074
 20
-125.372
 11
101.054
 21
-125.461
  0
LINE
  8
0
 10
101.054
 20
-125.461
 11
101.029
 21
-125.548
  0
LINE
  8
0
 10
101.029
 20
-125.548
 11
100.998
 21
-125.634
  0
LINE
  8
0
 10
100.998
 20
-125.634
 11
100.962
 21
-125.717
  0
LINE
  8
0
 10
100.962
 20
-125.717
 11
100.921
 21
-125.799
  0
LINE
  8
0
 10
100.921
 20
-125.799
 11
100.874
 21
-125.877
  0
LINE
  8
0
 10
100.874
 20
-125.877
 11
100.823
 21
-125.952
  0
LINE
  8
0
 10
100.823
 20
-125.952
 11
100.767
 21
-126.024
  0
LINE
  8
0
 10
100.767
 20
-126.024
 11
100.707
 21
-126.093
  0
LINE
  8
0
 10
100.707
 20
-126.093
 11
100.643
 21
-126.157
  0
LINE
  8
0
 10
100.643
 20
-126.157
 11
100.574
 21
-126.217
  0
LINE
  8
0
 10
100.574
 20
-126.217
 11
100.502
 21
-126.273
  0
LINE
  8
0
 10
100.502
 20
-126.273
 11
100.427
 21
-126.324
  0
LINE
  8
0
 10
100.427
 20
-126.324
 11
100.349
 21
-126.371
  0
LINE
  8
0
 10
100.349
 20
-126.371
 11
100.267
 21
-126.412
  0
LINE
  8
0
 10
100.267
 20
-126.412
 11
100.184
 21
-126.448
  0
LINE
  8
0
 10
100.184
 20
-126.448
 11
100.098
 21
-126.479
  0
LINE
  8
0
 10
100.098
 20
-126.479
 11
100.011
 21
-126.504
  0
LINE
  8
0
 10
100.011
 20
-126.504
 11
99.9217
 21
-126.524
  0
LINE
  8
0
 10
99.9217
 20
-126.524
 11
99.8317
 21
-126.539
  0
LINE
  8
0
 10
99.8317
 20
-126.539
 11
99.8
 21
-126.542
  0
LINE
  8
0
 10
99.8
 20
-126.542
 11
99.8
 21
-125.25
  0
LINE
  8
0
 10
99.4683
 20
-126.539
 11
99.3783
 21
-126.524
  0
LINE
  8
0
 10
99.3783
 20
-126.524
 11
99.2894
 21
-126.504
  0
LINE
  8
0
 10
99.2894
 20
-126.504
 11
99.2019
 21
-126.479
  0
LINE
  8
0
 10
99.2019
 20
-126.479
 11
99.1162
 21
-126.448
  0
LINE
  8
0
 10
99.1162
 20
-126.448
 11
99.0326
 21
-126.412
  0
LINE
  8
0
 10
99.0326
 20
-126.412
 11
98.9514
 21
-126.371
  0
LINE
  8
0
 10
98.9514
 20
-126.371
 11
98.873
 21
-126.324
  0
LINE
  8
0
 10
98.873
 20
-126.324
 11
98.7977
 21
-126.273
  0
LINE
  8
0
 10
98.7977
 20
-126.273
 11
98.7257
 21
-126.217
  0
LINE
  8
0
 10
98.7257
 20
-126.217
 11
98.6574
 21
-126.157
  0
LINE
  8
0
 10
98.6574
 20
-126.157
 11
98.593
 21
-126.093
  0
LINE
  8
0
 10
98.593
 20
-126.093
 11
98.5327
 21
-126.024
  0
LINE
  8
0
 10
98.5327
 20
-126.024
 11
98.4769
 21
-125.952
  0
LINE
  8
0
 10
98.4769
 20
-125.952
 11
98.4257
 21
-125.877
  0
LINE
  8
0
 10
98.4257
 20
-125.877
 11
98.3793
 21
-125.799
  0
LINE
  8
0
 10
98.3793
 20
-125.799
 11
98.338
 21
-125.717
  0
LINE
  8
0
 10
98.338
 20
-125.717
 11
98.3018
 21
-125.634
  0
LINE
  8
0
 10
98.3018
 20
-125.634
 11
98.271
 21
-125.548
  0
LINE
  8
0
 10
98.271
 20
-125.548
 11
98.2455
 21
-125.461
  0
LINE
  8
0
 10
98.2455
 20
-125.461
 11
98.2257
 21
-125.372
  0
LINE
  8
0
 10
98.2257
 20
-125.372
 11
98.2114
 21
-125.282
  0
LINE
  8
0
 10
98.2114
 20
-125.282
 11
98.2084
 21
-125.25
  0
LINE
  8
0
 10
98.2084
 20
-125.25
 11
99.5
 21
-125.25
  0
LINE
  8
0
 10
99.5
 20
-125.25
 11
99.5
 21
-126.542
  0
LINE
  8
0
 10
99.5
 20
-126.542
 11
99.4683
 21
-126.539
  0
ENDSEC
  0
SECTION
  2
OBJECTS
  0
DICTIONARY
  0
ENDSEC
  0
EOF
