999
DXF from OpenSCAD
  0
SECTION
  2
HEADER
  9
$ACADVER
  1
AC1006
  9
$INSBASE
 10
0.0
 20
0.0
 30
0.0
  9
$EXTMIN
 10
95.9
 20
-124.1
  9
$EXTMAX
 10
163.9
 20
2.22507e-308
  9
$LINMIN
 10
95.9
 20
-124.1
  9
$LINMAX
 10
163.9
 20
2.22507e-308
  0
ENDSEC
  0
SECTION
  2
TABLES
  0
TABLE
  2
LTYPE
 70
1
  0
LTYPE
  2
CONTINUOUS
 70
64
  3
Solid line
 72
65
 73
0
 40
0.000000
  0
ENDTAB
  0
TABLE
  2
LAYER
 70
6
  0
LAYER
  2
0
 70
64
 62
7
  6
CONTINUOUS
  0
ENDTAB
  0
TABLE
  2
STYLE
 70
0
  0
ENDTAB
  0
ENDSEC
  0
SECTION
  2
BLOCKS
  0
ENDSEC
  0
SECTION
  2
ENTITIES
  0
LWPOLYLINE
100
AcDbEntity
  8
0
100
AcDbPolyline
 90
12
 70
1
 10
162.55
 20
-122.75
 10
163.9
 20
-122.75
 10
163.9
 20
-57.45
 10
162.55
 20
-57.45
 10
162.55
 20
-56.1
 10
97.25
 20
-56.1
 10
97.25
 20
-57.45
 10
95.9
 20
-57.45
 10
95.9
 20
-122.75
 10
97.25
 20
-122.75
 10
97.25
 20
-124.1
 10
162.55
 20
-124.1
  0
LWPOLYLINE
100
AcDbEntity
  8
0
100
AcDbPolyline
 90
100
 70
1
 10
103.793
 20
-65.7966
 10
103.687
 20
-65.7866
 10
103.581
 20
-65.7699
 10
103.477
 20
-65.7466
 10
103.375
 20
-65.7168
 10
103.274
 20
-65.6806
 10
103.176
 20
-65.6382
 10
103.081
 20
-65.5897
 10
102.989
 20
-65.5354
 10
102.901
 20
-65.4753
 10
102.816
 20
-65.4099
 10
102.736
 20
-65.3392
 10
102.661
 20
-65.2637
 10
102.59
 20
-65.1836
 10
102.525
 20
-65.0992
 10
102.465
 20
-65.0109
 10
102.41
 20
-64.919
 10
102.362
 20
-64.8238
 10
102.319
 20
-64.7258
 10
102.283
 20
-64.6253
 10
102.253
 20
-64.5228
 10
102.23
 20
-64.4185
 10
102.213
 20
-64.3131
 10
102.203
 20
-64.2067
 10
102.2
 20
-64.1
 10
102.203
 20
-63.9933
 10
102.213
 20
-63.8869
 10
102.23
 20
-63.7815
 10
102.253
 20
-63.6772
 10
102.283
 20
-63.5747
 10
102.319
 20
-63.4742
 10
102.362
 20
-63.3762
 10
102.41
 20
-63.281
 10
102.465
 20
-63.1891
 10
102.525
 20
-63.1008
 10
102.59
 20
-63.0164
 10
102.661
 20
-62.9363
 10
102.736
 20
-62.8608
 10
102.816
 20
-62.7901
 10
102.901
 20
-62.7247
 10
102.989
 20
-62.6646
 10
103.081
 20
-62.6103
 10
103.176
 20
-62.5618
 10
103.274
 20
-62.5194
 10
103.375
 20
-62.4832
 10
103.477
 20
-62.4534
 10
103.581
 20
-62.4301
 10
103.687
 20
-62.4134
 10
103.793
 20
-62.4034
 10
103.9
 20
-62.4
 10
104.007
 20
-62.4034
 10
104.113
 20
-62.4134
 10
104.219
 20
-62.4301
 10
104.323
 20
-62.4534
 10
104.425
 20
-62.4832
 10
104.526
 20
-62.5194
 10
104.624
 20
-62.5618
 10
104.719
 20
-62.6103
 10
104.811
 20
-62.6646
 10
104.899
 20
-62.7247
 10
104.984
 20
-62.7901
 10
105.064
 20
-62.8608
 10
105.139
 20
-62.9363
 10
105.21
 20
-63.0164
 10
105.275
 20
-63.1008
 10
105.335
 20
-63.1891
 10
105.39
 20
-63.281
 10
105.438
 20
-63.3762
 10
105.481
 20
-63.4742
 10
105.517
 20
-63.5747
 10
105.547
 20
-63.6772
 10
105.57
 20
-63.7815
 10
105.587
 20
-63.8869
 10
105.597
 20
-63.9933
 10
105.6
 20
-64.1
 10
105.597
 20
-64.2067
 10
105.587
 20
-64.3131
 10
105.57
 20
-64.4185
 10
105.547
 20
-64.5228
 10
105.517
 20
-64.6253
 10
105.481
 20
-64.7258
 10
105.438
 20
-64.8238
 10
105.39
 20
-64.919
 10
105.335
 20
-65.0109
 10
105.275
 20
-65.0992
 10
105.21
 20
-65.1836
 10
105.139
 20
-65.2637
 10
105.064
 20
-65.3392
 10
104.984
 20
-65.4099
 10
104.899
 20
-65.4753
 10
104.811
 20
-65.5354
 10
104.719
 20
-65.5897
 10
104.624
 20
-65.6382
 10
104.526
 20
-65.6806
 10
104.425
 20
-65.7168
 10
104.323
 20
-65.7466
 10
104.219
 20
-65.7699
 10
104.113
 20
-65.7866
 10
104.007
 20
-65.7966
 10
103.9
 20
-65.8
  0
LWPOLYLINE
100
AcDbEntity
  8
0
100
AcDbPolyline
 90
100
 70
1
 10
155.793
 20
-65.7966
 10
155.687
 20
-65.7866
 10
155.581
 20
-65.7699
 10
155.477
 20
-65.7466
 10
155.375
 20
-65.7168
 10
155.274
 20
-65.6806
 10
155.176
 20
-65.6382
 10
155.081
 20
-65.5897
 10
154.989
 20
-65.5354
 10
154.901
 20
-65.4753
 10
154.816
 20
-65.4099
 10
154.736
 20
-65.3392
 10
154.661
 20
-65.2637
 10
154.59
 20
-65.1836
 10
154.525
 20
-65.0992
 10
154.465
 20
-65.0109
 10
154.41
 20
-64.919
 10
154.362
 20
-64.8238
 10
154.319
 20
-64.7258
 10
154.283
 20
-64.6253
 10
154.253
 20
-64.5228
 10
154.23
 20
-64.4185
 10
154.213
 20
-64.3131
 10
154.203
 20
-64.2067
 10
154.2
 20
-64.1
 10
154.203
 20
-63.9933
 10
154.213
 20
-63.8869
 10
154.23
 20
-63.7815
 10
154.253
 20
-63.6772
 10
154.283
 20
-63.5747
 10
154.319
 20
-63.4742
 10
154.362
 20
-63.3762
 10
154.41
 20
-63.281
 10
154.465
 20
-63.1891
 10
154.525
 20
-63.1008
 10
154.59
 20
-63.0164
 10
154.661
 20
-62.9363
 10
154.736
 20
-62.8608
 10
154.816
 20
-62.7901
 10
154.901
 20
-62.7247
 10
154.989
 20
-62.6646
 10
155.081
 20
-62.6103
 10
155.176
 20
-62.5618
 10
155.274
 20
-62.5194
 10
155.375
 20
-62.4832
 10
155.477
 20
-62.4534
 10
155.581
 20
-62.4301
 10
155.687
 20
-62.4134
 10
155.793
 20
-62.4034
 10
155.9
 20
-62.4
 10
156.007
 20
-62.4034
 10
156.113
 20
-62.4134
 10
156.219
 20
-62.4301
 10
156.323
 20
-62.4534
 10
156.425
 20
-62.4832
 10
156.526
 20
-62.5194
 10
156.624
 20
-62.5618
 10
156.719
 20
-62.6103
 10
156.811
 20
-62.6646
 10
156.899
 20
-62.7247
 10
156.984
 20
-62.7901
 10
157.064
 20
-62.8608
 10
157.139
 20
-62.9363
 10
157.21
 20
-63.0164
 10
157.275
 20
-63.1008
 10
157.335
 20
-63.1891
 10
157.39
 20
-63.281
 10
157.438
 20
-63.3762
 10
157.481
 20
-63.4742
 10
157.517
 20
-63.5747
 10
157.547
 20
-63.6772
 10
157.57
 20
-63.7815
 10
157.587
 20
-63.8869
 10
157.597
 20
-63.9933
 10
157.6
 20
-64.1
 10
157.597
 20
-64.2067
 10
157.587
 20
-64.3131
 10
157.57
 20
-64.4185
 10
157.547
 20
-64.5228
 10
157.517
 20
-64.6253
 10
157.481
 20
-64.7258
 10
157.438
 20
-64.8238
 10
157.39
 20
-64.919
 10
157.335
 20
-65.0109
 10
157.275
 20
-65.0992
 10
157.21
 20
-65.1836
 10
157.139
 20
-65.2637
 10
157.064
 20
-65.3392
 10
156.984
 20
-65.4099
 10
156.899
 20
-65.4753
 10
156.811
 20
-65.5354
 10
156.719
 20
-65.5897
 10
156.624
 20
-65.6382
 10
156.526
 20
-65.6806
 10
156.425
 20
-65.7168
 10
156.323
 20
-65.7466
 10
156.219
 20
-65.7699
 10
156.113
 20
-65.7866
 10
156.007
 20
-65.7966
 10
155.9
 20
-65.8
  0
LWPOLYLINE
100
AcDbEntity
  8
0
100
AcDbPolyline
 90
4
 70
1
 10
146.215
 20
-72.32
 10
146.215
 20
-69.38
 10
154.385
 20
-69.38
 10
154.385
 20
-72.32
  0
LWPOLYLINE
100
AcDbEntity
  8
0
100
AcDbPolyline
 90
4
 70
1
 10
111.425
 20
-86.7464
 10
113.546
 20
-84.6251
 10
116.375
 20
-87.4536
 10
114.254
 20
-89.5749
  0
LWPOLYLINE
100
AcDbEntity
  8
0
100
AcDbPolyline
 90
100
 70
1
 10
103.793
 20
-117.797
 10
103.687
 20
-117.787
 10
103.581
 20
-117.77
 10
103.477
 20
-117.747
 10
103.375
 20
-117.717
 10
103.274
 20
-117.681
 10
103.176
 20
-117.638
 10
103.081
 20
-117.59
 10
102.989
 20
-117.535
 10
102.901
 20
-117.475
 10
102.816
 20
-117.41
 10
102.736
 20
-117.339
 10
102.661
 20
-117.264
 10
102.59
 20
-117.184
 10
102.525
 20
-117.099
 10
102.465
 20
-117.011
 10
102.41
 20
-116.919
 10
102.362
 20
-116.824
 10
102.319
 20
-116.726
 10
102.283
 20
-116.625
 10
102.253
 20
-116.523
 10
102.23
 20
-116.419
 10
102.213
 20
-116.313
 10
102.203
 20
-116.207
 10
102.2
 20
-116.1
 10
102.203
 20
-115.993
 10
102.213
 20
-115.887
 10
102.23
 20
-115.781
 10
102.253
 20
-115.677
 10
102.283
 20
-115.575
 10
102.319
 20
-115.474
 10
102.362
 20
-115.376
 10
102.41
 20
-115.281
 10
102.465
 20
-115.189
 10
102.525
 20
-115.101
 10
102.59
 20
-115.016
 10
102.661
 20
-114.936
 10
102.736
 20
-114.861
 10
102.816
 20
-114.79
 10
102.901
 20
-114.725
 10
102.989
 20
-114.665
 10
103.081
 20
-114.61
 10
103.176
 20
-114.562
 10
103.274
 20
-114.519
 10
103.375
 20
-114.483
 10
103.477
 20
-114.453
 10
103.581
 20
-114.43
 10
103.687
 20
-114.413
 10
103.793
 20
-114.403
 10
103.9
 20
-114.4
 10
104.007
 20
-114.403
 10
104.113
 20
-114.413
 10
104.219
 20
-114.43
 10
104.323
 20
-114.453
 10
104.425
 20
-114.483
 10
104.526
 20
-114.519
 10
104.624
 20
-114.562
 10
104.719
 20
-114.61
 10
104.811
 20
-114.665
 10
104.899
 20
-114.725
 10
104.984
 20
-114.79
 10
105.064
 20
-114.861
 10
105.139
 20
-114.936
 10
105.21
 20
-115.016
 10
105.275
 20
-115.101
 10
105.335
 20
-115.189
 10
105.39
 20
-115.281
 10
105.438
 20
-115.376
 10
105.481
 20
-115.474
 10
105.517
 20
-115.575
 10
105.547
 20
-115.677
 10
105.57
 20
-115.781
 10
105.587
 20
-115.887
 10
105.597
 20
-115.993
 10
105.6
 20
-116.1
 10
105.597
 20
-116.207
 10
105.587
 20
-116.313
 10
105.57
 20
-116.419
 10
105.547
 20
-116.523
 10
105.517
 20
-116.625
 10
105.481
 20
-116.726
 10
105.438
 20
-116.824
 10
105.39
 20
-116.919
 10
105.335
 20
-117.011
 10
105.275
 20
-117.099
 10
105.21
 20
-117.184
 10
105.139
 20
-117.264
 10
105.064
 20
-117.339
 10
104.984
 20
-117.41
 10
104.899
 20
-117.475
 10
104.811
 20
-117.535
 10
104.719
 20
-117.59
 10
104.624
 20
-117.638
 10
104.526
 20
-117.681
 10
104.425
 20
-117.717
 10
104.323
 20
-117.747
 10
104.219
 20
-117.77
 10
104.113
 20
-117.787
 10
104.007
 20
-117.797
 10
103.9
 20
-117.8
  0
LWPOLYLINE
100
AcDbEntity
  8
0
100
AcDbPolyline
 90
100
 70
1
 10
155.793
 20
-117.797
 10
155.687
 20
-117.787
 10
155.581
 20
-117.77
 10
155.477
 20
-117.747
 10
155.375
 20
-117.717
 10
155.274
 20
-117.681
 10
155.176
 20
-117.638
 10
155.081
 20
-117.59
 10
154.989
 20
-117.535
 10
154.901
 20
-117.475
 10
154.816
 20
-117.41
 10
154.736
 20
-117.339
 10
154.661
 20
-117.264
 10
154.59
 20
-117.184
 10
154.525
 20
-117.099
 10
154.465
 20
-117.011
 10
154.41
 20
-116.919
 10
154.362
 20
-116.824
 10
154.319
 20
-116.726
 10
154.283
 20
-116.625
 10
154.253
 20
-116.523
 10
154.23
 20
-116.419
 10
154.213
 20
-116.313
 10
154.203
 20
-116.207
 10
154.2
 20
-116.1
 10
154.203
 20
-115.993
 10
154.213
 20
-115.887
 10
154.23
 20
-115.781
 10
154.253
 20
-115.677
 10
154.283
 20
-115.575
 10
154.319
 20
-115.474
 10
154.362
 20
-115.376
 10
154.41
 20
-115.281
 10
154.465
 20
-115.189
 10
154.525
 20
-115.101
 10
154.59
 20
-115.016
 10
154.661
 20
-114.936
 10
154.736
 20
-114.861
 10
154.816
 20
-114.79
 10
154.901
 20
-114.725
 10
154.989
 20
-114.665
 10
155.081
 20
-114.61
 10
155.176
 20
-114.562
 10
155.274
 20
-114.519
 10
155.375
 20
-114.483
 10
155.477
 20
-114.453
 10
155.581
 20
-114.43
 10
155.687
 20
-114.413
 10
155.793
 20
-114.403
 10
155.9
 20
-114.4
 10
156.007
 20
-114.403
 10
156.113
 20
-114.413
 10
156.219
 20
-114.43
 10
156.323
 20
-114.453
 10
156.425
 20
-114.483
 10
156.526
 20
-114.519
 10
156.624
 20
-114.562
 10
156.719
 20
-114.61
 10
156.811
 20
-114.665
 10
156.899
 20
-114.725
 10
156.984
 20
-114.79
 10
157.064
 20
-114.861
 10
157.139
 20
-114.936
 10
157.21
 20
-115.016
 10
157.275
 20
-115.101
 10
157.335
 20
-115.189
 10
157.39
 20
-115.281
 10
157.438
 20
-115.376
 10
157.481
 20
-115.474
 10
157.517
 20
-115.575
 10
157.547
 20
-115.677
 10
157.57
 20
-115.781
 10
157.587
 20
-115.887
 10
157.597
 20
-115.993
 10
157.6
 20
-116.1
 10
157.597
 20
-116.207
 10
157.587
 20
-116.313
 10
157.57
 20
-116.419
 10
157.547
 20
-116.523
 10
157.517
 20
-116.625
 10
157.481
 20
-116.726
 10
157.438
 20
-116.824
 10
157.39
 20
-116.919
 10
157.335
 20
-117.011
 10
157.275
 20
-117.099
 10
157.21
 20
-117.184
 10
157.139
 20
-117.264
 10
157.064
 20
-117.339
 10
156.984
 20
-117.41
 10
156.899
 20
-117.475
 10
156.811
 20
-117.535
 10
156.719
 20
-117.59
 10
156.624
 20
-117.638
 10
156.526
 20
-117.681
 10
156.425
 20
-117.717
 10
156.323
 20
-117.747
 10
156.219
 20
-117.77
 10
156.113
 20
-117.787
 10
156.007
 20
-117.797
 10
155.9
 20
-117.8
  0
ENDSEC
  0
EOF
