  0
SECTION
  2
BLOCKS
  0
ENDSEC
  0
SECTION
  2
ENTITIES
  0
LINE
  8
0
 10
160.1
 20
-27.5
 11
162.5
 21
-25.1
  0
LINE
  8
0
 10
162.5
 20
-25.1
 11
162.5
 21
-18.9
  0
LINE
  8
0
 10
162.5
 20
-18.9
 11
161.1
 21
-17.5
  0
LINE
  8
0
 10
161.1
 20
-17.5
 11
98.7
 21
-17.5
  0
LINE
  8
0
 10
98.7
 20
-17.5
 11
97.3
 21
-18.9
  0
LINE
  8
0
 10
97.3
 20
-18.9
 11
97.3
 21
-25.1
  0
LINE
  8
0
 10
97.3
 20
-25.1
 11
99.7
 21
-27.5
  0
LINE
  8
0
 10
99.7
 20
-27.5
 11
160.1
 21
-27.5
  0
LINE
  8
0
 10
125.76
 20
-22.3
 11
125.76
 21
-21.9429
  0
LINE
  8
0
 10
125.76
 20
-21.9429
 11
125.753
 21
-21.9374
  0
LINE
  8
0
 10
125.753
 20
-21.9374
 11
125.678
 21
-21.8718
  0
LINE
  8
0
 10
125.678
 20
-21.8718
 11
125.608
 21
-21.8016
  0
LINE
  8
0
 10
125.608
 20
-21.8016
 11
125.543
 21
-21.7271
  0
LINE
  8
0
 10
125.543
 20
-21.7271
 11
125.482
 21
-21.6487
  0
LINE
  8
0
 10
125.482
 20
-21.6487
 11
125.426
 21
-21.5666
  0
LINE
  8
0
 10
125.426
 20
-21.5666
 11
125.375
 21
-21.4812
  0
LINE
  8
0
 10
125.375
 20
-21.4812
 11
125.33
 21
-21.3927
  0
LINE
  8
0
 10
125.33
 20
-21.3927
 11
125.291
 21
-21.3016
  0
LINE
  8
0
 10
125.291
 20
-21.3016
 11
125.257
 21
-21.2082
  0
LINE
  8
0
 10
125.257
 20
-21.2082
 11
125.23
 21
-21.1129
  0
LINE
  8
0
 10
125.23
 20
-21.1129
 11
125.208
 21
-21.0161
  0
LINE
  8
0
 10
125.208
 20
-21.0161
 11
125.192
 21
-20.918
  0
LINE
  8
0
 10
125.192
 20
-20.918
 11
125.183
 21
-20.8192
  0
LINE
  8
0
 10
125.183
 20
-20.8192
 11
125.18
 21
-20.72
  0
LINE
  8
0
 10
125.18
 20
-20.72
 11
125.183
 21
-20.6208
  0
LINE
  8
0
 10
125.183
 20
-20.6208
 11
125.192
 21
-20.522
  0
LINE
  8
0
 10
125.192
 20
-20.522
 11
125.208
 21
-20.4239
  0
LINE
  8
0
 10
125.208
 20
-20.4239
 11
125.23
 21
-20.3271
  0
LINE
  8
0
 10
125.23
 20
-20.3271
 11
125.257
 21
-20.2318
  0
LINE
  8
0
 10
125.257
 20
-20.2318
 11
125.291
 21
-20.1384
  0
LINE
  8
0
 10
125.291
 20
-20.1384
 11
125.33
 21
-20.0473
  0
LINE
  8
0
 10
125.33
 20
-20.0473
 11
125.375
 21
-19.9588
  0
LINE
  8
0
 10
125.375
 20
-19.9588
 11
125.426
 21
-19.8734
  0
LINE
  8
0
 10
125.426
 20
-19.8734
 11
125.482
 21
-19.7913
  0
LINE
  8
0
 10
125.482
 20
-19.7913
 11
125.543
 21
-19.7129
  0
LINE
  8
0
 10
125.543
 20
-19.7129
 11
125.608
 21
-19.6384
  0
LINE
  8
0
 10
125.608
 20
-19.6384
 11
125.678
 21
-19.5682
  0
LINE
  8
0
 10
125.678
 20
-19.5682
 11
125.753
 21
-19.5026
  0
LINE
  8
0
 10
125.753
 20
-19.5026
 11
125.831
 21
-19.4417
  0
LINE
  8
0
 10
125.831
 20
-19.4417
 11
125.913
 21
-19.386
  0
LINE
  8
0
 10
125.913
 20
-19.386
 11
125.999
 21
-19.3354
  0
LINE
  8
0
 10
125.999
 20
-19.3354
 11
126.087
 21
-19.2904
  0
LINE
  8
0
 10
126.087
 20
-19.2904
 11
126.178
 21
-19.2509
  0
LINE
  8
0
 10
126.178
 20
-19.2509
 11
126.272
 21
-19.2173
  0
LINE
  8
0
 10
126.272
 20
-19.2173
 11
126.367
 21
-19.1896
  0
LINE
  8
0
 10
126.367
 20
-19.1896
 11
126.464
 21
-19.168
  0
LINE
  8
0
 10
126.464
 20
-19.168
 11
126.562
 21
-19.1525
  0
LINE
  8
0
 10
126.562
 20
-19.1525
 11
126.661
 21
-19.1431
  0
LINE
  8
0
 10
126.661
 20
-19.1431
 11
126.76
 21
-19.14
  0
LINE
  8
0
 10
126.76
 20
-19.14
 11
133.04
 21
-19.14
  0
LINE
  8
0
 10
133.04
 20
-19.14
 11
133.139
 21
-19.1431
  0
LINE
  8
0
 10
133.139
 20
-19.1431
 11
133.238
 21
-19.1525
  0
LINE
  8
0
 10
133.238
 20
-19.1525
 11
133.336
 21
-19.168
  0
LINE
  8
0
 10
133.336
 20
-19.168
 11
133.433
 21
-19.1896
  0
LINE
  8
0
 10
133.433
 20
-19.1896
 11
133.528
 21
-19.2173
  0
LINE
  8
0
 10
133.528
 20
-19.2173
 11
133.622
 21
-19.2509
  0
LINE
  8
0
 10
133.622
 20
-19.2509
 11
133.713
 21
-19.2904
  0
LINE
  8
0
 10
133.713
 20
-19.2904
 11
133.801
 21
-19.3354
  0
LINE
  8
0
 10
133.801
 20
-19.3354
 11
133.887
 21
-19.386
  0
LINE
  8
0
 10
133.887
 20
-19.386
 11
133.969
 21
-19.4417
  0
LINE
  8
0
 10
133.969
 20
-19.4417
 11
134.047
 21
-19.5026
  0
LINE
  8
0
 10
134.047
 20
-19.5026
 11
134.122
 21
-19.5682
  0
LINE
  8
0
 10
134.122
 20
-19.5682
 11
134.192
 21
-19.6384
  0
LINE
  8
0
 10
134.192
 20
-19.6384
 11
134.257
 21
-19.7129
  0
LINE
  8
0
 10
134.257
 20
-19.7129
 11
134.318
 21
-19.7913
  0
LINE
  8
0
 10
134.318
 20
-19.7913
 11
134.374
 21
-19.8734
  0
LINE
  8
0
 10
134.374
 20
-19.8734
 11
134.425
 21
-19.9588
  0
LINE
  8
0
 10
134.425
 20
-19.9588
 11
134.47
 21
-20.0473
  0
LINE
  8
0
 10
134.47
 20
-20.0473
 11
134.509
 21
-20.1384
  0
LINE
  8
0
 10
134.509
 20
-20.1384
 11
134.543
 21
-20.2318
  0
LINE
  8
0
 10
134.543
 20
-20.2318
 11
134.57
 21
-20.3271
  0
LINE
  8
0
 10
134.57
 20
-20.3271
 11
134.592
 21
-20.4239
  0
LINE
  8
0
 10
134.592
 20
-20.4239
 11
134.608
 21
-20.522
  0
LINE
  8
0
 10
134.608
 20
-20.522
 11
134.617
 21
-20.6208
  0
LINE
  8
0
 10
134.617
 20
-20.6208
 11
134.62
 21
-20.72
  0
LINE
  8
0
 10
134.62
 20
-20.72
 11
134.617
 21
-20.8192
  0
LINE
  8
0
 10
134.617
 20
-20.8192
 11
134.608
 21
-20.918
  0
LINE
  8
0
 10
134.608
 20
-20.918
 11
134.592
 21
-21.0161
  0
LINE
  8
0
 10
134.592
 20
-21.0161
 11
134.57
 21
-21.1129
  0
LINE
  8
0
 10
134.57
 20
-21.1129
 11
134.543
 21
-21.2082
  0
LINE
  8
0
 10
134.543
 20
-21.2082
 11
134.509
 21
-21.3016
  0
LINE
  8
0
 10
134.509
 20
-21.3016
 11
134.47
 21
-21.3927
  0
LINE
  8
0
 10
134.47
 20
-21.3927
 11
134.425
 21
-21.4812
  0
LINE
  8
0
 10
134.425
 20
-21.4812
 11
134.374
 21
-21.5666
  0
LINE
  8
0
 10
134.374
 20
-21.5666
 11
134.318
 21
-21.6487
  0
LINE
  8
0
 10
134.318
 20
-21.6487
 11
134.257
 21
-21.7271
  0
LINE
  8
0
 10
134.257
 20
-21.7271
 11
134.192
 21
-21.8016
  0
LINE
  8
0
 10
134.192
 20
-21.8016
 11
134.122
 21
-21.8718
  0
LINE
  8
0
 10
134.122
 20
-21.8718
 11
134.047
 21
-21.9374
  0
LINE
  8
0
 10
134.047
 20
-21.9374
 11
134.04
 21
-21.9429
  0
LINE
  8
0
 10
134.04
 20
-21.9429
 11
134.04
 21
-22.3
  0
LINE
  8
0
 10
134.04
 20
-22.3
 11
125.76
 21
-22.3
  0
ENDSEC
  0
SECTION
  2
OBJECTS
  0
DICTIONARY
  0
ENDSEC
  0
EOF
