  0
SECTION
  2
BLOCKS
  0
ENDSEC
  0
SECTION
  2
ENTITIES
  0
LINE
  8
0
 10
162.5
 20
-171.3
 11
162.5
 21
-165.1
  0
LINE
  8
0
 10
162.5
 20
-165.1
 11
160.1
 21
-162.7
  0
LINE
  8
0
 10
160.1
 20
-162.7
 11
144.4
 21
-162.7
  0
LINE
  8
0
 10
144.4
 20
-162.7
 11
144.4
 21
-166.3
  0
LINE
  8
0
 10
144.4
 20
-166.3
 11
143.84
 21
-166.3
  0
LINE
  8
0
 10
143.84
 20
-166.3
 11
143.84
 21
-161.21
  0
LINE
  8
0
 10
143.84
 20
-161.21
 11
133.65
 21
-161.21
  0
LINE
  8
0
 10
133.65
 20
-161.21
 11
133.65
 21
-159.66
  0
LINE
  8
0
 10
133.65
 20
-159.66
 11
126.15
 21
-159.66
  0
LINE
  8
0
 10
126.15
 20
-159.66
 11
126.15
 21
-161.21
  0
LINE
  8
0
 10
126.15
 20
-161.21
 11
115.96
 21
-161.21
  0
LINE
  8
0
 10
115.96
 20
-161.21
 11
115.96
 21
-166.3
  0
LINE
  8
0
 10
115.96
 20
-166.3
 11
115.4
 21
-166.3
  0
LINE
  8
0
 10
115.4
 20
-166.3
 11
115.4
 21
-162.7
  0
LINE
  8
0
 10
115.4
 20
-162.7
 11
99.7
 21
-162.7
  0
LINE
  8
0
 10
99.7
 20
-162.7
 11
97.3
 21
-165.1
  0
LINE
  8
0
 10
97.3
 20
-165.1
 11
97.3
 21
-171.3
  0
LINE
  8
0
 10
97.3
 20
-171.3
 11
98.7
 21
-172.7
  0
LINE
  8
0
 10
98.7
 20
-172.7
 11
161.1
 21
-172.7
  0
LINE
  8
0
 10
161.1
 20
-172.7
 11
162.5
 21
-171.3
  0
LINE
  8
0
 10
116.76
 20
-165.51
 11
116.76
 21
-162.01
  0
LINE
  8
0
 10
116.76
 20
-162.01
 11
143.04
 21
-162.01
  0
LINE
  8
0
 10
143.04
 20
-162.01
 11
143.04
 21
-165.51
  0
LINE
  8
0
 10
143.04
 20
-165.51
 11
116.76
 21
-165.51
  0
LINE
  8
0
 10
118.788
 20
-163.443
 11
118.152
 21
-163.443
  0
LINE
  8
0
 10
118.152
 20
-163.443
 11
118.152
 21
-164.077
  0
LINE
  8
0
 10
118.152
 20
-164.077
 11
118.788
 21
-164.077
  0
LINE
  8
0
 10
118.788
 20
-164.077
 11
118.788
 21
-163.443
  0
LINE
  8
0
 10
121.327
 20
-163.443
 11
120.693
 21
-163.443
  0
LINE
  8
0
 10
120.693
 20
-163.443
 11
120.693
 21
-164.077
  0
LINE
  8
0
 10
120.693
 20
-164.077
 11
121.327
 21
-164.077
  0
LINE
  8
0
 10
121.327
 20
-164.077
 11
121.327
 21
-163.443
  0
LINE
  8
0
 10
123.868
 20
-163.443
 11
123.232
 21
-163.443
  0
LINE
  8
0
 10
123.232
 20
-163.443
 11
123.232
 21
-164.077
  0
LINE
  8
0
 10
123.232
 20
-164.077
 11
123.868
 21
-164.077
  0
LINE
  8
0
 10
123.868
 20
-164.077
 11
123.868
 21
-163.443
  0
LINE
  8
0
 10
126.408
 20
-163.443
 11
125.773
 21
-163.443
  0
LINE
  8
0
 10
125.773
 20
-163.443
 11
125.773
 21
-164.077
  0
LINE
  8
0
 10
125.773
 20
-164.077
 11
126.408
 21
-164.077
  0
LINE
  8
0
 10
126.408
 20
-164.077
 11
126.408
 21
-163.443
  0
LINE
  8
0
 10
128.947
 20
-163.443
 11
128.312
 21
-163.443
  0
LINE
  8
0
 10
128.312
 20
-163.443
 11
128.312
 21
-164.077
  0
LINE
  8
0
 10
128.312
 20
-164.077
 11
128.947
 21
-164.077
  0
LINE
  8
0
 10
128.947
 20
-164.077
 11
128.947
 21
-163.443
  0
LINE
  8
0
 10
131.487
 20
-163.443
 11
130.852
 21
-163.443
  0
LINE
  8
0
 10
130.852
 20
-163.443
 11
130.852
 21
-164.077
  0
LINE
  8
0
 10
130.852
 20
-164.077
 11
131.487
 21
-164.077
  0
LINE
  8
0
 10
131.487
 20
-164.077
 11
131.487
 21
-163.443
  0
LINE
  8
0
 10
134.027
 20
-163.443
 11
133.392
 21
-163.443
  0
LINE
  8
0
 10
133.392
 20
-163.443
 11
133.392
 21
-164.077
  0
LINE
  8
0
 10
133.392
 20
-164.077
 11
134.027
 21
-164.077
  0
LINE
  8
0
 10
134.027
 20
-164.077
 11
134.027
 21
-163.443
  0
LINE
  8
0
 10
136.567
 20
-163.443
 11
135.932
 21
-163.443
  0
LINE
  8
0
 10
135.932
 20
-163.443
 11
135.932
 21
-164.077
  0
LINE
  8
0
 10
135.932
 20
-164.077
 11
136.567
 21
-164.077
  0
LINE
  8
0
 10
136.567
 20
-164.077
 11
136.567
 21
-163.443
  0
LINE
  8
0
 10
139.107
 20
-163.443
 11
138.472
 21
-163.443
  0
LINE
  8
0
 10
138.472
 20
-163.443
 11
138.472
 21
-164.077
  0
LINE
  8
0
 10
138.472
 20
-164.077
 11
139.107
 21
-164.077
  0
LINE
  8
0
 10
139.107
 20
-164.077
 11
139.107
 21
-163.443
  0
LINE
  8
0
 10
141.647
 20
-163.443
 11
141.012
 21
-163.443
  0
LINE
  8
0
 10
141.012
 20
-163.443
 11
141.012
 21
-164.077
  0
LINE
  8
0
 10
141.012
 20
-164.077
 11
141.647
 21
-164.077
  0
LINE
  8
0
 10
141.647
 20
-164.077
 11
141.647
 21
-163.443
  0
LINE
  8
0
 10
124.2
 20
-171.09
 11
124.2
 21
-167.9
  0
LINE
  8
0
 10
124.2
 20
-167.9
 11
123.5
 21
-167.9
  0
LINE
  8
0
 10
123.5
 20
-167.9
 11
123.5
 21
-166.31
  0
LINE
  8
0
 10
123.5
 20
-166.31
 11
136.3
 21
-166.31
  0
LINE
  8
0
 10
136.3
 20
-166.31
 11
136.3
 21
-167.9
  0
LINE
  8
0
 10
136.3
 20
-167.9
 11
135.6
 21
-167.9
  0
LINE
  8
0
 10
135.6
 20
-167.9
 11
135.6
 21
-171.09
  0
LINE
  8
0
 10
135.6
 20
-171.09
 11
124.2
 21
-171.09
  0
LINE
  8
0
 10
135.4
 20
-167.89
 11
124.4
 21
-167.89
  0
LINE
  8
0
 10
124.4
 20
-167.89
 11
124.4
 21
-170.79
  0
LINE
  8
0
 10
124.4
 20
-170.79
 11
135.4
 21
-170.79
  0
LINE
  8
0
 10
135.4
 20
-170.79
 11
135.4
 21
-167.89
  0
LINE
  8
0
 10
124.8
 20
-170.39
 11
124.8
 21
-168.29
  0
LINE
  8
0
 10
124.8
 20
-168.29
 11
135
 21
-168.29
  0
LINE
  8
0
 10
135
 20
-168.29
 11
135
 21
-170.39
  0
LINE
  8
0
 10
135
 20
-170.39
 11
124.8
 21
-170.39
  0
LINE
  8
0
 10
126
 20
-169.675
 11
125.8
 21
-169.675
  0
LINE
  8
0
 10
125.8
 20
-169.675
 11
125.8
 21
-169.875
  0
LINE
  8
0
 10
125.8
 20
-169.875
 11
126
 21
-169.875
  0
LINE
  8
0
 10
126
 20
-169.875
 11
126
 21
-169.675
  0
LINE
  8
0
 10
127
 20
-169.675
 11
126.8
 21
-169.675
  0
LINE
  8
0
 10
126.8
 20
-169.675
 11
126.8
 21
-169.875
  0
LINE
  8
0
 10
126.8
 20
-169.875
 11
127
 21
-169.875
  0
LINE
  8
0
 10
127
 20
-169.875
 11
127
 21
-169.675
  0
LINE
  8
0
 10
128
 20
-169.675
 11
127.8
 21
-169.675
  0
LINE
  8
0
 10
127.8
 20
-169.675
 11
127.8
 21
-169.875
  0
LINE
  8
0
 10
127.8
 20
-169.875
 11
128
 21
-169.875
  0
LINE
  8
0
 10
128
 20
-169.875
 11
128
 21
-169.675
  0
LINE
  8
0
 10
129
 20
-169.675
 11
128.8
 21
-169.675
  0
LINE
  8
0
 10
128.8
 20
-169.675
 11
128.8
 21
-169.875
  0
LINE
  8
0
 10
128.8
 20
-169.875
 11
129
 21
-169.875
  0
LINE
  8
0
 10
129
 20
-169.875
 11
129
 21
-169.675
  0
LINE
  8
0
 10
130
 20
-169.675
 11
129.8
 21
-169.675
  0
LINE
  8
0
 10
129.8
 20
-169.675
 11
129.8
 21
-169.875
  0
LINE
  8
0
 10
129.8
 20
-169.875
 11
130
 21
-169.875
  0
LINE
  8
0
 10
130
 20
-169.875
 11
130
 21
-169.675
  0
LINE
  8
0
 10
131
 20
-169.675
 11
130.8
 21
-169.675
  0
LINE
  8
0
 10
130.8
 20
-169.675
 11
130.8
 21
-169.875
  0
LINE
  8
0
 10
130.8
 20
-169.875
 11
131
 21
-169.875
  0
LINE
  8
0
 10
131
 20
-169.875
 11
131
 21
-169.675
  0
LINE
  8
0
 10
132
 20
-169.675
 11
131.8
 21
-169.675
  0
LINE
  8
0
 10
131.8
 20
-169.675
 11
131.8
 21
-169.875
  0
LINE
  8
0
 10
131.8
 20
-169.875
 11
132
 21
-169.875
  0
LINE
  8
0
 10
132
 20
-169.875
 11
132
 21
-169.675
  0
LINE
  8
0
 10
133
 20
-169.675
 11
132.8
 21
-169.675
  0
LINE
  8
0
 10
132.8
 20
-169.675
 11
132.8
 21
-169.875
  0
LINE
  8
0
 10
132.8
 20
-169.875
 11
133
 21
-169.875
  0
LINE
  8
0
 10
133
 20
-169.875
 11
133
 21
-169.675
  0
LINE
  8
0
 10
134
 20
-169.675
 11
133.8
 21
-169.675
  0
LINE
  8
0
 10
133.8
 20
-169.675
 11
133.8
 21
-169.875
  0
LINE
  8
0
 10
133.8
 20
-169.875
 11
134
 21
-169.875
  0
LINE
  8
0
 10
134
 20
-169.875
 11
134
 21
-169.675
  0
ENDSEC
  0
SECTION
  2
OBJECTS
  0
DICTIONARY
  0
ENDSEC
  0
EOF
