999
DXF from OpenSCAD
  0
SECTION
  2
HEADER
  9
$ACADVER
  1
AC1006
  9
$INSBASE
 10
0.0
 20
0.0
 30
0.0
  9
$EXTMIN
 10
-35
 20
-12.4
  9
$EXTMAX
 10
35
 20
1.4
  9
$LINMIN
 10
-35
 20
-12.4
  9
$LINMAX
 10
35
 20
1.4
  0
ENDSEC
  0
SECTION
  2
TABLES
  0
TABLE
  2
LTYPE
 70
1
  0
LTYPE
  2
CONTINUOUS
 70
64
  3
Solid line
 72
65
 73
0
 40
0.000000
  0
ENDTAB
  0
TABLE
  2
LAYER
 70
6
  0
LAYER
  2
0
 70
64
 62
7
  6
CONTINUOUS
  0
ENDTAB
  0
TABLE
  2
STYLE
 70
0
  0
ENDTAB
  0
ENDSEC
  0
SECTION
  2
BLOCKS
  0
ENDSEC
  0
SECTION
  2
ENTITIES
  0
LWPOLYLINE
100
AcDbEntity
  8
0
100
AcDbPolyline
 90
28
 70
1
 10
35
 20
-10
 10
32.6
 20
-7.6
 10
32.6
 20
-4.8
 10
31.8
 20
-4.8
 10
31.8
 20
-6.4
 10
31.2
 20
-6.4
 10
31.2
 20
-4.8
 10
32.6
 20
-4.8
 10
32.6
 20
-1.4
 10
34
 20
-1.90735e-07
 10
32.6
 20
1.4
 10
31.2
 20
-1.90735e-07
 10
-31.2
 20
-1.90735e-07
 10
-32.6
 20
1.4
 10
-34
 20
-1.90735e-07
 10
-32.6
 20
-1.4
 10
-32.6
 20
-4.8
 10
-31.2
 20
-4.8
 10
-31.2
 20
-6.4
 10
-31.8
 20
-6.4
 10
-31.8
 20
-4.8
 10
-32.6
 20
-4.8
 10
-32.6
 20
-7.6
 10
-35
 20
-10
 10
-32.6
 20
-12.4
 10
-30.51
 20
-10.31
 10
30.51
 20
-10.31
 10
32.6
 20
-12.4
  0
LWPOLYLINE
100
AcDbEntity
  8
0
100
AcDbPolyline
 90
8
 70
1
 10
-14.5
 20
-10.01
 10
-14.5
 20
-6.4
 10
-6.4
 20
-6.4
 10
-6.4
 20
-1.61
 10
6.4
 20
-1.61
 10
6.4
 20
-6.4
 10
14.5
 20
-6.4
 10
14.5
 20
-10.01
  0
ENDSEC
  0
EOF
